<?xml version="1.0" standalone="no"?>
<!DOCTYPE svg PUBLIC "-//W3C//DTD SVG 1.1//EN" "http://www.w3.org/Graphics/SVG/1.1/DTD/svg11.dtd" >
<svg xmlns="http://www.w3.org/2000/svg">
<metadata></metadata>
<defs>
<font id="dk_pimpernelregular" horiz-adv-x="567" >
<font-face units-per-em="2048" ascent="1638" descent="-410" />
<missing-glyph horiz-adv-x="655" />
<glyph horiz-adv-x="0" />
<glyph horiz-adv-x="682" />
<glyph unicode=" "  horiz-adv-x="655" />
<glyph unicode="&#x09;" horiz-adv-x="655" />
<glyph unicode="&#xa0;" horiz-adv-x="655" />
<glyph unicode="!" horiz-adv-x="299" d="M82 639q0 93 5 202t13.5 258t12.5 240q0 55 2 78v17q12 73 12 145l29 20q22 0 32 -5t11.5 -11.5t1.5 -21.5v-29q0 -131 -16.5 -413t-16.5 -433q0 -75 10 -229t10 -213l2 -33l-8 -16q-15 -19 -37 -19q-14 0 -34 10l-2 84q-27 163 -27 369zM131 39v12l25 25q61 0 61 -39 q0 -16 -16 -29.5t-31 -13.5q-18 0 -27 8t-10.5 15.5t-1.5 21.5z" />
<glyph unicode="&#x22;" horiz-adv-x="452" d="M63 1264q0 22 9.5 90t9.5 76v165q17 19 39 19q41 0 41 -92v-103q0 -194 -74 -194q-12 0 -18.5 7.5t-6.5 31.5zM272 1227q0 13 7 37q34 38 34 166v165q17 19 39 19q39 0 39 -92v-103q0 -30 -3.5 -60.5t-12.5 -68.5t-31 -62t-53 -24q-19 0 -19 23z" />
<glyph unicode="$" horiz-adv-x="972" d="M61 209q0 19 13 34t35 15q9 0 31.5 -26.5t51 -53t54.5 -26.5l16 -5q17 0 55 -17t56 -19h6q0 29 3 93.5t3 98.5q0 39 -3 110.5t-3 110.5v62q0 54 5 164t5 165v27q-20 10 -37 10l-57 27q-84 35 -131.5 88t-63.5 147v19q0 84 47.5 168.5t116.5 138.5q22 16 62.5 30t68 23.5 t27.5 20.5l4 43q0 51 37 51q22 0 33 -16v-80q48 -1 96.5 -9t99.5 -26t83 -52.5t32 -80.5q-24 0 -52 11t-44 21.5t-19 14.5l-8 4q-103 41 -182 41h-15v-160q0 -163 -22 -366q0 -15 39 -31l51 -23h-2q54 -27 113 -76.5t115.5 -115.5t93 -151t36.5 -169v-24q0 -69 -34.5 -137 t-88.5 -118.5t-120 -86t-129 -47.5h-33q-19 0 -47 -4h-4q0 -12 1 -46.5t1 -54.5q0 -129 -39 -129q-43 0 -43 37v193q-81 0 -163 42t-101 74l-25 23q-25 14 -25 43zM178 1251q0 -47 13 -80.5t42 -57.5t58 -38.5t78 -32.5l22 -14l4 2q21 193 25 488q-4 4 -4 10q-1 0 -9 -2.5 t-18 -7.5t-14 -9q-76 -29 -133.5 -101.5t-63.5 -156.5zM453 524q0 -2 4 -83.5t4 -190.5v-139h22q29 0 47 2q67 0 139 48.5t119.5 122t47.5 142.5q0 84 -34.5 163t-91 138.5t-118.5 103.5t-127 72q0 -102 -6 -211.5t-6 -152.5v-15z" />
<glyph unicode="'" horiz-adv-x="241" d="M61 1227q0 13 7 37q34 38 34 166v165q17 19 39 19q39 0 39 -92v-103q0 -30 -3.5 -60.5t-12.5 -68.5t-31 -62t-53 -24q-19 0 -19 23z" />
<glyph unicode="(" horiz-adv-x="466" d="M61 655v35q3 296 76 502l41 117q13 37 48 103t79.5 125.5t69.5 59.5q14 0 21.5 -6.5t8.5 -12.5t1 -17v-17q-50 -46 -87 -100t-63.5 -123t-42 -123.5t-37.5 -144.5l-12 -45v2l-21 -133q0 -20 -3 -41t-3 -25v-51q0 -9 -2 -26t-2 -21q0 -21 4 -33v-27q17 -168 45 -227 q6 -13 20.5 -68.5t30.5 -87.5l13 -24v2q60 -93 151 -187v-61h-45l-18 16q-4 4 -21.5 20t-25.5 24t-21 21.5t-21.5 24.5t-13.5 21l-24 45q-59 107 -102.5 239t-43.5 244z" />
<glyph unicode=")" horiz-adv-x="466" d="M61 1544v17q0 11 1 17t8.5 12.5t21.5 6.5q24 0 102.5 -116.5t98.5 -169.5l41 -119q72 -246 72 -502v-35q0 -113 -43.5 -249.5t-102.5 -235.5v2l-24 -45q-5 -9 -11.5 -18.5t-16 -20t-16 -17.5t-19 -19t-18 -17t-20 -18.5t-18.5 -16.5h-47v61q94 91 151 183v-2l45 104 q3 24 31.5 119t36.5 188v27q4 12 4 39q-4 25 -4 41v51q0 4 -3 25t-3 41l-21 131l-12 45q-21 78 -27 99t-25 84.5t-32.5 90.5t-37 73t-51 79.5t-61.5 64.5z" />
<glyph unicode="," horiz-adv-x="331" d="M61 -188q0 14 15.5 24t35 14.5t39.5 14.5t27 24q29 40 29 168v168q11 17 31 17q32 0 32 -90v-105q0 -48 -6.5 -90t-22 -85t-48.5 -68t-80 -25q-52 0 -52 33z" />
<glyph unicode="-" horiz-adv-x="823" d="M61 621q0 36 70 36q42 0 131 -6t137 -6h150q59 0 86.5 -0.5t63 -3.5t49.5 -10.5t14 -20.5q0 -9 -16 -27t-25 -18l-43 4q-2 0 -10 1t-13 1h-39q-15 0 -53.5 1t-56.5 1h-98q-26 0 -113.5 2.5t-124.5 2.5l-78 4q-31 2 -31 39z" />
<glyph unicode="." horiz-adv-x="264" d="M61 68q0 72 74 94q27 0 47.5 -25t20.5 -49q0 -40 -70 -92q-31 0 -51.5 21.5t-20.5 50.5z" />
<glyph unicode="/" horiz-adv-x="671" d="M61 33v10l50 147q10 36 20 52l66 198q7 13 10 41l41 121q9 26 33.5 114t42.5 132l73 266q1 3 42 146.5t80 246.5t63 103q7 0 17.5 -9.5t10.5 -17.5v-27l-53 -149q-3 -30 -14 -53l-13 -37q-7 -7 -17 -42t-24.5 -90t-25.5 -89l-14 -43q-8 -19 -15 -43l-129 -439 q-20 -51 -58 -183t-67 -195l-53 -156q-11 -26 -25 -35q-15 0 -21.5 1t-13 8t-6.5 22z" />
<glyph unicode="0" horiz-adv-x="714" d="M61 901l7 66q5 56 9.5 99t7 63.5t4.5 34t2.5 18t0.5 8.5l25 98q17 54 38 101.5t55 100.5t82.5 84.5t104.5 31.5q228 0 244 -377l6 -72q6 -75 6 -80v-297q-8 -33 -9 -79t-5 -70l-8 -76q0 -5 -2 -15t-2 -14q-5 -30 -9.5 -74.5t-8 -71.5t-17.5 -79.5t-39 -120.5v2 q-2 -7 -6 -15t-11 -19.5t-10 -16.5l-30 -53l-54 -49q-32 -29 -86 -29q-58 0 -103 30t-70 74t-43.5 103t-25.5 106t-13 95.5t-9 60.5l-20 248v18q0 27 -5.5 80t-5.5 86zM135 885q0 -101 19 -287v-12l10 -94q20 -186 47 -268q50 -146 147 -146l43 4q25 23 46 50t35.5 62.5 t24.5 60.5t18.5 69.5t11.5 61t9 64.5t7 52l14 106q0 8 1 37.5t1 38.5v16q0 2 1.5 9t3.5 19.5t4 25.5l6 49v248q0 6 -4.5 45t-6.5 47v16q0 47 -8 115l-8 69l-29 93l2 -2l-6 8q-20 28 -32.5 42.5t-35.5 30t-50 19.5q-50 0 -80 -21l-7 -6q-184 -184 -184 -622z" />
<glyph unicode="1" horiz-adv-x="569" d="M61 977q0 38 50 127l16 29l-2 -3l57 185q10 27 29.5 125.5t52.5 163.5q53 0 53 -88v-15q0 -8 -2 -66t-2 -73v-86q0 -4 -1 -16t-1 -17v-72q0 -88 5.5 -265t5.5 -265v-33q0 -174 -9 -235q1 -56 2 -95.5t2.5 -69.5t2 -46t2.5 -33t2.5 -21t3.5 -20.5t4 -21.5h12q18 0 51 -3.5 t51 -3.5h46l16 -28q-6 -9 -6 -45h-66q-40 0 -126 4t-132 4h-72q-16 2 -27 13t-11 30l4 16q4 5 10 8.5t10 4.5h4h56q5 0 15 -1.5t15 -1.5l76 3v6q0 1 -4 16.5t-4 44.5l2 483q0 14 1 40t1 38l-8 477q0 8 -1 25.5t-1 24.5v22q0 1 -1 3t-1 7q0 3 0.5 9.5t1.5 18t2 22.5 q-16 -37 -17 -41q-6 -43 -56 -180.5t-79 -137.5q-33 0 -33 33z" />
<glyph unicode="2" horiz-adv-x="675" d="M61 1180q0 17 5.5 34t5.5 21q35 110 78 186t116 142l17 14q53 29 102 29l31 -4q95 -13 146.5 -82.5t51.5 -153.5q0 -113 -58 -277.5t-136 -306.5l-111 -247q-21 -42 -33 -106t-26 -97q-2 -21 -18.5 -66t-16.5 -49v-45q-10 -29 -10 -90q2 0 2 -2h14q27 0 79 -3t79 -3h41 q12 4 18 4h64q11 0 26 1l15 1h45q0 -9 2 -19.5t2 -19.5q0 -7 -2 -18t-2 -15l-221 -6q-52 0 -88 4l-72 6q-1 0 -15 -3t-26 -3h-25q-16 18 -16 35q0 61 14.5 150t34.5 135l23 80q15 75 43 141l14 37q13 27 41 88l20 47q0 8 26 62t42 77v-2l20 41q2 8 19 43q99 231 123 383 l6 20q-1 1 -2 9.5t-2 20t-2 16.5q-4 22 -10 35.5t-14 27t-13 23.5v-2q-19 30 -56 45.5t-75 15.5q-49 0 -96 -55l-39 -45q-55 -64 -86 -150.5t-31 -155.5q0 -105 4 -145q-7 -14 -18 -17t-35 -3l-10 53z" />
<glyph unicode="3" horiz-adv-x="729" d="M61 45q0 21 21 31h20q16 0 47 -4t46 -4q93 0 186 48.5t155 135.5t62 186v78q0 49 -24 120t-60 132v-2q-34 56 -89 109t-110 53h-20q-12 0 -20.5 9.5t-10.5 23.5q0 30 23 43h-2l34 18q100 60 148.5 132t48.5 171q0 52 -17.5 90.5t-44 61t-65.5 35.5t-75.5 17.5t-80.5 4.5 q-13 0 -37 -2t-36 -2h-33q-14 3 -17.5 12t-3.5 27q3 18 3 30l24 5h146q79 -3 137 -21.5t90 -43.5t50.5 -62.5t24 -71t5.5 -76.5v-16q-21 -199 -144 -289l-51 -37q128 -61 202.5 -210.5t74.5 -305.5q0 -113 -58.5 -226t-150.5 -167l-60 -35q-34 -20 -96 -34.5t-113 -14.5 q-129 0 -129 51z" />
<glyph unicode="4" horiz-adv-x="729" d="M61 780v49q0 34 14.5 125t14.5 168v80q0 30 7 84t7 84v72q0 10 4.5 48t4.5 58v21q0 3 7.5 15.5t14.5 19.5q24 0 34.5 -12t10.5 -27l-10 -119q0 -92 -8 -192t-8 -142v-90q-2 -41 -14.5 -115t-12.5 -114v-25q0 -20 1 -29t6 -20.5t18 -18t34 -10.5l25 -6h61q8 0 25.5 1 t26.5 1h100q50 0 70 -4q2 23 2 63q0 23 1.5 50.5t5.5 65t13 61.5t23 24q34 0 34 -47q0 -37 -7 -113t-7 -110q42 0 75.5 -10t33.5 -33q0 -14 -7.5 -25.5t-21.5 -11.5h-16q-6 4 -48 4h-24v-436q0 -34 -1 -54t-4 -50t-12.5 -45t-23.5 -15q-6 0 -18.5 12.5t-12.5 18.5v20 q0 73 4 220.5t4 224.5v110h-12q-49 6 -156 6h-67q-4 0 -12 -1t-11 -1h-34q-89 22 -111.5 51t-22.5 119z" />
<glyph unicode="5" horiz-adv-x="696" d="M61 1188q0 14 5.5 40.5t5.5 37.5q0 1 -1 4.5t-1 5.5v67q0 27 1 66.5t1 52.5v47q0 18 -2 45.5t-2 42.5q3 10 13.5 19.5t18.5 9.5q0 -2 41.5 -9t113 -13.5t136.5 -6.5q3 0 10.5 1t10.5 1h30q38 0 74 -4h14q29 0 48 -24q-10 -39 -31 -55q-53 6 -122 10t-155 7.5t-131 6.5 v-20q0 -24 2 -64.5t2 -60.5v-27q0 -2 -1 -11.5t-1 -17.5v-77q0 -6 -3 -27t-3 -27q13 0 58 2t61 2q38 0 108.5 -11t114.5 -34l29 -18v2q34 -20 58.5 -51t37.5 -63.5t21 -75t10 -76.5t2 -78v-92q0 -132 -10 -211l-35 -215q-7 -39 -15 -58l-8 -20q-33 -110 -123 -166.5 t-213 -56.5h-8q-34 0 -91 18.5t-58 48.5q0 23 7 28t25 5h17q48 -27 110 -27h27q59 0 105 21.5t74 52t49 78.5t30.5 86t18.5 90l8 49q10 63 14 197v160q0 7 -1 22t-1 23v12l1 4q1 4 1 8v15q-13 144 -79.5 195.5t-241.5 66.5q-20 0 -66 -4l-76 -7q-21 6 -28 19.5t-7 38.5z" />
<glyph unicode="6" horiz-adv-x="677" d="M61 834q0 10 1 18.5t2 19.5t2 19q1 6 1.5 57t8 140t24.5 206l6 37q0 24 26.5 68t65.5 87.5t90.5 76t94.5 32.5l12 -2q13 -1 19.5 -3t14 -10.5t7.5 -23.5q0 -11 -0.5 -16t-7.5 -11.5t-20 -6.5h-54l-14 -4h2q-30 -15 -45 -27l-14 -14l-11 -11l-32 -34q-40 -43 -64 -176 t-24 -248q0 -29 2 -41l-11 -265q52 62 117.5 97t132.5 35q59 0 117.5 -62t79.5 -129q0 -12 4 -20l6 -17l6 -71q6 -37 6 -62v-27q0 -19 2 -62t2 -54v-31q0 -303 -245 -303h-47q-46 2 -82.5 20.5t-58 42t-38.5 61t-24 64t-15 64.5l-6 31q-4 20 -4 28l-2 12q-14 71 -14 101v104 q-19 138 -19 310zM162 471q0 -74 8 -140t36.5 -135.5t74.5 -95.5l12 -12q17 -10 39 -10q4 0 28.5 2t42.5 2h21q36 11 59.5 38t34.5 67t15 77.5t4 87.5q0 400 -166 400q-40 0 -73.5 -17.5t-54 -42t-38 -63.5t-26 -69t-17.5 -71v-18z" />
<glyph unicode="7" horiz-adv-x="724" d="M61 1554v11q0 39 43 39q148 -23 263 -23h184q57 -7 85 -28.5t28 -77.5q0 -18 -7.5 -51t-7.5 -48l-28 -162q0 -15 -7 -36l-12 -48v3l-45 -322q0 -4 -2 -13.5t-2 -13.5l-15 -53q-16 -53 -31 -121t-15 -106l-9 -51q-5 -37 -19 -95.5t-18 -83.5v2l-30 -147q-2 -6 -2 -14v-15 l-15 -51q-10 -41 -45 -41q-12 0 -19 1.5t-9.5 7t-3 10t-0.5 16.5v14q41 153 81.5 372t69.5 329l12 51q2 85 28.5 202.5t29.5 147.5l45 279q0 11 4 35q0 38 -133 38h-107q-3 0 -32 2.5t-33 2.5h-45q-34 4 -52 6q-2 0 -23 0.5t-38.5 1.5t-38 9t-29.5 21z" />
<glyph unicode="8" horiz-adv-x="747" d="M61 340q0 158 66.5 298t159.5 196l20 10q-21 14 -34.5 32.5t-18 29.5t-11.5 38t-10 35l-18 53v-2q-33 103 -33 258q0 150 49 234t150 84q44 0 80 -27l53 -41q34 -28 57 -106t23 -127q0 -110 -57.5 -234t-133.5 -225q3 -7 14.5 -16t18.5 -9l10 -8q58 -59 96.5 -104 t74 -100t52.5 -112.5t17 -119.5q0 -54 -8.5 -103t-28 -99t-56.5 -89t-89 -59q-13 0 -65 -16.5t-85 -16.5h-24q-83 0 -146 52t-93 129.5t-30 164.5zM135 348q0 -46 10 -92t30.5 -89t57.5 -69.5t86 -27.5q34 2 58 5t57 11t56.5 20.5t48.5 35t40 52.5t25 74.5t10 100.5 q0 89 -12 108l-49 107q-5 10 -14.5 23.5t-18.5 24t-26.5 28.5t-26 26t-29.5 28t-26 25l-54 52l-47 -21q-30 0 -72.5 -65.5t-73 -156.5t-30.5 -157v-43zM254 1266q0 -100 27.5 -202.5t83.5 -168.5q13 19 45 86l8 16q42 85 57 117.5t30 83.5t15 98q0 52 -12 101t-46.5 90 t-86.5 41q-39 0 -64.5 -23.5t-37 -66.5t-15.5 -82t-4 -90z" />
<glyph unicode="9" horiz-adv-x="604" d="M61 1204q0 78 48 172t116 144l60 43q24 11 55.5 18.5t44.5 7.5q31 0 64 -14q-1 -21 -11 -41q-110 -12 -206.5 -101.5t-96.5 -183.5v-35q0 -52 5.5 -108t27 -121.5t57.5 -83.5l25 -16v2q16 -10 47 -10q41 0 72 22t47 52.5t26 72.5t12.5 72.5t2.5 62.5v37q0 8 -1 26t-1 29 v68q0 19 -2 71t-2 62h12v22t-0.5 40t-1.5 44t-2 15l-2 -4q0 26 5.5 31.5t26.5 5.5q29 0 41.5 -73t12.5 -255q0 -17 -6.5 -124t-6.5 -122v-82q0 -29 3.5 -80.5t3.5 -76.5l4 -201q0 -4 -1 -14.5t-1 -14.5q0 -43 2 -63q-11 -140 -21 -197q-2 -41 -17.5 -91t-43 -100.5 t-74.5 -84t-104 -33.5q-43 0 -107 22q-10 0 -50 31t-40 55q0 45 22 45q20 0 52 -38l41 -27l-2 2q49 -18 73 -18q48 0 106 57t58 108q37 208 37 390v28q0 5 -1 19t-1 22v21q-4 20 -4 51q0 7 2 36t2 46t-4 49l-14 -25q-22 -30 -62 -48.5t-74 -18.5h-12q-45 0 -65 4l-56 37 q-8 4 -8 6l-18 14q-59 60 -77 145t-18 197z" />
<glyph unicode=":" horiz-adv-x="268" d="M61 68q0 72 74 94q27 0 47.5 -25t20.5 -49q0 -40 -70 -92q-31 0 -51.5 21.5t-20.5 50.5zM66 592q0 74 73 96q27 0 47.5 -25t20.5 -49q0 -47 -70 -92q-31 0 -51 20.5t-20 49.5z" />
<glyph unicode=";" horiz-adv-x="354" d="M61 -188q1 14 16 23.5t34 14.5t39.5 15.5t29.5 23.5q11 18 18.5 57t9 66.5t1.5 44.5v168q9 17 29 17q32 0 32 -90v-105q0 -268 -157 -268q-52 0 -52 33zM152 604q0 75 71 94q29 0 49.5 -23.5t20.5 -47.5q0 -48 -72 -92q-30 0 -49.5 20.5t-19.5 48.5z" />
<glyph unicode="?" horiz-adv-x="768" d="M61 1147l9 63q16 124 40 182q56 138 212 189q85 25 127 25h36q6 0 33 -9l12 -6q1 0 3.5 -1t3.5 -1l59 -26q39 -27 75 -85t36 -106q0 -46 -12 -87t-40 -83t-52 -70.5t-68 -76.5l-37 -37q-40 -49 -64 -122t-31 -146v-121q0 -44 2.5 -129t2.5 -123q0 -26 -2.5 -62.5 t-2.5 -54.5l-4 -31q-19 -26 -37 -26q-15 0 -22.5 13.5t-7.5 27.5q0 6 2 36t2 35v285q0 1 -2 35.5t-2 40.5l16 164q11 77 36 130t93 126l76 75q24 24 55 83t31 100q0 83 -62.5 134.5t-142.5 51.5q-8 0 -82 -22l-37 -13l-47 -26q-46 -26 -65.5 -49.5t-32.5 -61.5l-16 -47 q-17 -68 -27 -162v-22q0 -33 4 -56l-4 -53q-38 27 -48 42.5t-13 43.5zM350 39l4 16l23 21q10 0 27.5 -14.5t17.5 -24.5q0 -5 -16.5 -20t-20.5 -15q-16 0 -25.5 13t-9.5 24z" />
<glyph unicode="@" horiz-adv-x="1071" d="M61 565q0 113 19 205l24 115q10 47 51 108.5t89 110.5l69 55q66 51 236 51h80q81 -17 144.5 -55.5t101.5 -87.5t59 -98t27 -99l16 -120q-5 -56 -13.5 -102.5t-28 -101.5t-48 -95.5t-77 -73.5t-110.5 -45h-28q-62 0 -137 67l-19 -12h-12q-51 0 -73.5 29.5t-22.5 89.5 q0 21 2.5 41.5t11.5 56.5t34.5 58t63.5 22q7 0 27 -4q-2 37 -23 115l-10 34l-39 35q-29 25 -55 25q-9 -15 -27 -15q-25 0 -33 19v25q0 28 9 40.5t39 12.5q49 0 105.5 -45.5t84.5 -100.5q20 -81 20 -184q0 -21 -5 -61.5t-5 -59.5l-8 -26q-6 -9 -6 -39q54 -54 82 -54l59 17 q60 25 114 118.5t54 172.5q0 171 -53 274q-163 158 -281 158h-20q-5 0 -23.5 -0.5t-24.5 -0.5t-23 -1t-24.5 -2.5t-23 -4t-24 -5.5t-22 -8t-23.5 -11t-21 -14.5t-21 -18.5l-73 -74q-55 -55 -83 -168.5t-30 -228.5v-12q2 -111 18.5 -195t63.5 -149q43 -60 102.5 -110 t102.5 -50l20 -4q58 -14 78 -14h29q93 0 183.5 34t141.5 99l56 71q5 5 7.5 22t5 33.5t12.5 30t28 13.5q29 0 29 -31q-5 -100 -80.5 -181.5t-185 -124t-222.5 -42.5q-65 0 -109 8.5t-90.5 34.5t-90.5 73t-101 126q-70 125 -70 329zM483 477q3 -14 21 -14q11 0 19 15.5t11 39 t4 37.5t1 23q0 12 -5.5 22t-13.5 10q-20 0 -28.5 -35t-8.5 -69v-29z" />
<glyph unicode="A" horiz-adv-x="700" d="M61 123q0 34 6.5 113.5t6.5 125.5v654q0 28 -6.5 122t-6.5 130l5 55q9 137 20 178q21 81 90 129l12 8h91q27 0 63 -12l49 -12q15 0 45 -5t45 -5h47q42 -4 67.5 -42.5t25.5 -80.5v-709q6 -60 6 -82v-96q0 -13 -1 -37t-1 -35q0 -74 7 -210.5t7 -207.5v-79l-72 -7l-8 17 q0 9 6 51v35q-12 152 -12 452q0 131 2 154v4l-137 23q-133 20 -195 22q-78 0 -78 -16v-12q0 -13 -4 -95v-168q4 -28 4 -51v-57q0 -55 -6 -161.5t-6 -156.5v-41q-72 0 -72 105zM135 1260q0 -64 5 -186.5t5 -186.5v-29q128 0 158 -6l160 -25q30 -6 86 -6q-2 27 -2 135 q0 55 4 190t4 218v16q0 138 -20 140q-108 6 -312 47q-38 -4 -58 -39.5t-20 -89.5z" />
<glyph unicode="B" horiz-adv-x="569" d="M61 1227q0 5 3.5 45t3.5 45v250q0 15 3 24.5t17 19.5t41 15q77 -9 131 -27.5t100 -64.5q43 -59 68 -138t25 -155v-272q-16 -88 -42.5 -138t-84.5 -90q103 -65 142.5 -146.5t39.5 -207.5q0 -138 -23 -201l-18 -51q-16 -38 -45.5 -65t-58 -40.5t-73 -20.5t-72 -8t-73.5 -1 h-36l-31 12v138q-1 0 -3.5 22t-2.5 31q0 12 3 69.5t3 67.5v180q0 7 -3 62.5t-3 62.5v182q0 3 -2 79t-2 93v25q0 1 -0.5 7t-1.5 19.5t-2 34.5t-1.5 58.5t-1.5 83.5zM125 1544q6 -47 6 -268v-111q0 -75 6 -205.5t6 -185.5q108 3 175 61.5t67 180.5q0 68 -0.5 104t-5.5 100.5 t-14.5 101.5t-28.5 85t-46 73.5t-69 44.5t-96 19zM139 635q0 -6 4 -89t4 -145v-321h25q129 0 164 22v-2q94 90 94 201v76q0 83 -21.5 150.5t-75 114t-132.5 46.5h-8q-3 0 -11 -1t-12 -1q-17 0 -25 4q-6 0 -6 -55z" />
<glyph unicode="C" d="M61 322q0 36 3.5 138t3.5 169v24q0 46 -5 76v653q0 32 12.5 73t22 62t31.5 66q18 35 48 45t106 10l30 -4q44 0 68.5 -18t24.5 -66h-52q-2 2 -18 7.5t-19 5.5h-94q-27 -1 -46 -28t-28 -69.5t-12.5 -82t-3.5 -80.5q0 -119 3 -354.5t3 -350.5q0 -37 -4 -110.5t-4 -110.5v-17 q0 -219 111 -270h8q26 0 49 -6t31 -6q16 0 51.5 3t60.5 3q54 0 64 -29q0 -6 -1.5 -15.5t-8.5 -23.5t-17 -18h-80q-59 0 -98.5 1.5t-77 7.5t-59.5 15.5t-42.5 27.5t-30.5 40t-18 57t-10 76t-2 99z" />
<glyph unicode="D" horiz-adv-x="628" d="M61 1204v94q0 237 6 286.5t35 49.5q1 0 4 -1t5 -1q8 0 18 4q20 0 27 -10h4q26 0 99.5 -38t84.5 -38q29 -20 53.5 -43.5t42.5 -52t32 -54t24 -62t16.5 -62t12.5 -67.5t9 -65.5t7 -68.5l14 -188l12 -84v-348q0 -60 -12 -122.5t-39 -122.5t-64.5 -107t-93.5 -76t-122 -29 q-18 0 -40 3t-32 3q-6 -6 -23 -6q-22 0 -29.5 13.5t-7.5 37.5q0 13 3.5 42t3.5 44q0 128 -25 443t-25 626zM131 1081q0 -72 10.5 -189t10.5 -263v-29q0 -18 5 -75t5 -62l2 -53q10 -34 10 -111v-61q0 -8 1 -24t1 -24v-45q0 -69 12 -69q142 0 205 61h-2q49 76 78 169t29 173 v285q-14 77 -25 227t-22 213v-2q-8 23 -18.5 64t-18 66t-24.5 58t-40 60l-74 41q-47 13 -120 55l-21 -168q-4 -28 -4 -133v-164z" />
<glyph unicode="E" horiz-adv-x="641" d="M61 651v123q0 52 3.5 157.5t3.5 162.5q0 3 -3.5 44.5t-3.5 49.5v237l13 66q22 71 92.5 106t152.5 35h15q100 0 190 -20q-33 -56 -88 -56h-170l-69 -18l2 2q-36 -28 -52 -80.5t-16 -105.5q0 -15 3 -56t3 -45v-579q8 8 23 8h63q35 0 101.5 -2t101.5 -2l43 -2q9 -4 19 -16 t10 -25q0 -20 -16.5 -32.5t-32.5 -12.5h-15q-123 10 -221 10h-55q-15 6 -21 12v-24q6 -54 6 -70v-276q0 -152 45 -152q136 -22 338 -22h39q15 -22 15 -45q0 -37 -41 -37h-13q-31 6 -102 6h-62q-62 0 -94.5 1t-73 8.5t-59.5 21.5q-24 17 -43.5 64t-19.5 75q0 1 1 4.5t1 5.5 q-6 60 -6 82v299q0 3 -3.5 47t-3.5 51z" />
<glyph unicode="F" horiz-adv-x="579" d="M61 4q0 22 6.5 187t6.5 241v29q0 64 -4 96v559q0 6 2 64t2 65v23q0 4 -2 44t-2 46v196q-7 21 -7 27q0 13 18 33t36 20q16 -7 30 -11t56.5 -7.5t111.5 -3.5h95q10 -10 108 -10v-50q0 -32 -33 -32q-23 0 -50 8t-42 8h-82q-9 0 -30 -1t-31 -1q-43 0 -71.5 3t-33.5 3h-6v-551 q4 -2 10.5 -5t11 -5t5.5 -2l6 4l8 6q39 0 65.5 -1.5t61.5 -6t53.5 -16t18.5 -29.5q0 -37 -55 -37q-2 0 -19 5t-20 5h-148q-4 -90 -4 -168v-65q0 -42 6 -123.5t6 -122.5q0 -5 -3 -45t-3 -45v-256l-6 -43q-1 -17 -25.5 -26t-46.5 -9z" />
<glyph unicode="G" horiz-adv-x="681" d="M61 946v148q0 542 330 542q18 0 30 -1t28.5 -5.5t26.5 -12.5t17 -23.5t7 -37.5q-42 0 -54 5h-43q-86 0 -140.5 -34.5t-92.5 -123.5q-37 -225 -37 -545v-31q0 -17 2 -53t2 -65v-111q4 -31 4 -90q0 -112 11 -162v-45q0 -42 1.5 -66.5t8.5 -58t25 -54t46 -28.5l46 -12 q16 0 32 -4q28 4 60 4q2 0 28 -2t29 -2h78q47 0 47 33q0 9 -6 58.5t-6 72.5v77q0 34 -4 48v221h-144q-12 -6 -33 -6q-15 0 -28 10t-13 31q0 17 9.5 27t28.5 14t32 5t35 1h84q16 4 47 4q15 0 22 -1t15.5 -4.5t12 -13.5t3.5 -26q0 -28 -2 -84t-2 -82q0 -59 8.5 -176t8.5 -170 v-51q-18 -62 -164 -62h-39q-34 0 -58 6q-5 0 -19 -4t-19 -4l-5 2h-30q-5 0 -14.5 2t-14.5 2l-57 10q-48 11 -75 41t-35 76t-9 92.5t-3 110t-11 108.5v58q0 75 -3.5 220.5t-3.5 221.5z" />
<glyph unicode="H" horiz-adv-x="667" d="M61 76v55q0 24 5.5 189t5.5 217v30q6 24 6 51v166q0 6 2 34t2 34v41q0 49 -8 148t-8 151q0 48 6 149t6 152v43q0 28 10 60t29 32q21 0 30 -8t9 -37q-21 -185 -21 -383q0 -44 8.5 -136.5t8.5 -141.5v-15q0 -19 -3.5 -59t-3.5 -55h9q1 -1 65 -11h285q2 0 2 -4v246q0 5 3 37 t3 37v88q0 12 -1 32.5t-1 30.5q0 33 5 109t5 100v53q0 66 23 111q37 0 45 -20v-160q0 -9 -4 -89.5t-4 -88.5v-185q0 -5 -3.5 -43t-3.5 -41v-90q0 -3 3.5 -27t3.5 -26q0 -3 -1.5 -11t-3 -19.5t-2.5 -16.5q3 -213 19 -531q0 -35 7 -121t7 -159h-71v80q-1 19 -7 116.5 t-10.5 180.5t-5.5 112v13q0 3 -1 10.5t-1 11.5q0 7 1 21.5t1 21.5v55q-6 18 -6 74v4q-74 0 -189.5 6.5t-173.5 6.5v-25q0 -5 1 -16t1 -15v-12q0 -24 -3 -61t-3 -70q0 -9 1 -29t1 -30v-80q0 -11 -4 -39v-29q0 -84 -10 -171t-33 -87q-17 0 -25 6.5t-8 26.5z" />
<glyph unicode="I" horiz-adv-x="804" d="M61 41q0 22 10.5 33t21.5 12.5t34 1.5h20q12 0 40 -3t42 -3h17q99 6 137 6v21q0 63 6 112v533q4 24 4 69v197q0 168 10 438q0 9 6.5 46.5t6.5 47.5h-113q-28 0 -35 7h-39q-168 0 -168 36q0 10 1 15.5t7 12.5t19 13h33q37 0 112.5 -8t112.5 -8q15 0 53 3t62 3q39 0 114 -3 t113 -3h29q13 0 19 -4t6.5 -8.5t0.5 -16.5q0 -45 -59 -45h-25q-27 0 -67 3t-57 3h-13q-30 0 -40.5 -24t-10.5 -68q0 -11 1 -36t1 -38v-135q0 -5 -1 -14t-1 -12v-105l-6 -35v-221q0 -60 -6 -129v-28q0 -57 3 -171t3 -171q0 -41 -3 -121t-3 -115v-49q25 -4 133 -4h67 q3 0 10.5 1t10.5 1q18 -18 18 -31q0 -3 -20 -53q-74 0 -92 6h-11q-3 0 -10 -1t-10 -1q-139 6 -188 12h-5q-5 0 -57 -3t-57 -3h-8q-24 0 -69 3t-67 3h-24q-19 8 -19 31z" />
<glyph unicode="J" horiz-adv-x="811" d="M61 119q0 18 6 24.5t27 6.5h19q50 -50 88 -67t96 -17q210 0 225 253v60q0 4 3 33t3 32v111q0 38 -3 114t-3 119v46q0 12 2 22v-2q4 28 4 37v65q0 80 11 207v66q0 9 -1 28t-1 27q0 5 1 14t1 13v24q0 143 16 201q-66 4 -117 10l-209 15q-65 0 -65 41q0 17 5.5 24.5t12 8.5 t23.5 1h12q26 0 141 -10h15q27 -3 71.5 -10.5t65.5 -7.5q2 0 15 3t20 3h98q76 0 107 -31q0 -51 -43 -51l-66 8q-10 2 -18 2l-2 -29q-15 -153 -15 -196q0 -12 2 -36t2 -38v-72q0 -83 -8 -219.5t-8 -199.5v-72q0 -13 6 -25v-211l-6 -45v-14q-7 -148 -29 -215 q-60 -180 -278 -180q-48 0 -84 14.5t-91 47.5q-9 6 -14 9h2q-39 19 -39 58z" />
<glyph unicode="K" horiz-adv-x="681" d="M61 1585q0 51 39 51q8 0 18 -8.5t11 -15.5l10 -103q0 -27 -2 -90.5t-2 -97.5q0 -40 4 -110t4 -103v-90l4 -29q8 -57 13 -166v-24l274 514q4 4 4 12q15 36 46 105t44 98l15 33q11 14 28 14q25 0 41 -16q-4 -20 -37 -102.5t-43 -102.5q-179 -319 -307 -598l-20 -41 q0 -2 -2 -5.5t-2 -4.5q0 -19 25.5 -55t61 -78.5t46.5 -61.5l131 -223h-2l6 -8l63 -91q81 -118 89 -116q0 -22 -1.5 -31t-11 -17t-30.5 -8q-17 0 -40 24t-38.5 48.5t-12.5 24.5l-34 47q-17 33 -56 91t-57 91l-18 35q-36 61 -68 105t-57.5 76t-36.5 48v-129q0 -5 3 -50t3 -50 v-264q0 -29 6 -35v-19q0 -41 -41 -63q-13 7 -27 31l-4 12q0 5 -2 39t-2 41v33q0 24 2 76t2 79v21q0 6 -5 56t-5 58v107q0 39 3 119t3 125l-14 168q-14 187 -14 241v305q-7 44 -7 78z" />
<glyph unicode="L" horiz-adv-x="526" d="M61 182v1393l7 37q2 13 8.5 19t13 6.5t23.5 0.5q14 -15 18.5 -37t4.5 -49t3 -39v-61q0 -33 -3 -96t-3 -96q0 -29 3 -91t3 -98q-6 -30 -6 -127l2 -282q-4 -54 -4 -189q0 -116 8 -221.5t8 -163.5h15q6 -2 28 -2q35 6 89 6h18q168 0 168 -47q0 -22 -8.5 -33.5t-36.5 -11.5 q-25 0 -56 2.5t-68 6.5t-50 5h-15q-14 0 -45 -5t-47 -5q-71 0 -71 43q0 5 2 16t2 15q0 56 -11 104z" />
<glyph unicode="M" horiz-adv-x="733" d="M61 666v829q5 63 5 78v29l18 18q26 0 44 -21t26 -46t17.5 -61t16.5 -52l13 -31q34 -85 59 -233l12 -74q5 -27 25 -105l12 -43q9 -23 18.5 -80.5t18.5 -76.5l6 -27l25 117q18 85 68.5 234t64.5 200l20 59q5 25 13 37l37 123q8 24 8 29v16q2 11 3.5 15t6 12.5t12 12 t19.5 3.5q37 0 37 -63v-11q0 -4 -1 -16.5t-2 -23t-1 -11.5v-53q-3 -20 -9 -140t-6 -143v-84q0 -14 3 -59.5t3 -56.5v-111q0 -144 4 -422q0 -38 7.5 -119.5t7.5 -124.5v-24q0 -105 -8 -140t-23 -51q-9 0 -23.5 7t-21.5 16v125q4 54 4 94v10q0 4 -1 14t-1 15v31 q-14 82 -14 262v311q0 5 -2 82t-2 92v164q0 64 4 119l-17 -62q0 -45 -26 -71v-10l-45 -125q-19 -53 -64 -252l-31 -144q-3 -8 -4.5 -28t-3 -34t-11.5 -26t-28 -12q-39 0 -39 57q0 33 -9.5 71.5t-26.5 87t-23 71.5l-16 90l-13 41q-11 36 -32 154.5t-43 185.5q-5 10 -5 18 l-14 41v-2q0 -55 -6 -115v-30q0 -32 3 -94.5t3 -92.5v-18q-6 -18 -6 -62q0 -99 6 -141v-88q0 -58 4 -78v-608q0 -16 -12 -25.5t-27 -9.5q-22 0 -32 21v39q0 34 2 102t2 106v60q-4 32 -4 55q0 5 2 77t2 87v47q0 36 -9 66z" />
<glyph unicode="N" horiz-adv-x="808" d="M61 821q0 30 3.5 95.5t3.5 97.5v14q0 4 -1 13t-1 14q0 33 6 101t6 101v21q0 151 -6 205q0 50 12 102.5t33 52.5q9 0 23 -14t16 -20l22 -56q4 -44 37 -135.5t39 -112.5l74 -190q4 -10 10.5 -30.5t12 -34.5t11.5 -21l15 -55q0 -19 18.5 -46t18.5 -42q0 -21 35 -100.5 t40 -94.5l17 -57h-2q3 -3 10 -17l57 -161q0 -24 21 -58v2q12 -20 14 -35l4 -14v2q4 -12 24.5 -40.5t33.5 -74.5l-6 84q-1 9 -4 40.5t-3 48.5q0 21 4.5 72.5t4.5 82.5q0 20 -4.5 105t-4.5 96l-12 391l8 68l21 358q0 39 45 39q31 0 31 -68q0 -98 -16.5 -231t-16.5 -162v-123 q0 -5 -2 -27t-2 -26q0 -24 6 -81.5t6 -84.5q0 -24 -2 -63.5t-2 -61.5q0 -10 5 -49t5 -61q0 -16 -3 -48t-3 -47q0 -7 4 -39l10 -151q0 -197 6 -258q0 -7 -9 -21.5t-21 -17.5q-29 12 -37 23.5t-8 27.5l-60 133q-8 18 -50 107.5t-60 134.5l2 -2q-17 27 -21 51l-55 166 q0 35 -23 68l-16 32l-37 117q-16 18 -35 68.5t-44 130t-44 127.5q-40 90 -80 213q-4 0 -4 4q0 -24 2 -70t2 -61q0 -26 -10 -210t-10 -270q0 -291 22 -731q0 -14 -16 -30h-25q-19 0 -27.5 35t-8.5 69v29q0 1 -1 4.5t-1 5.5v8q0 130 4 162q0 32 -4.5 104.5t-4.5 83.5v9 q0 4 1.5 15.5t1.5 16.5v35q0 40 -2.5 111t-2.5 106z" />
<glyph unicode="O" horiz-adv-x="716" d="M61 975v55q0 7 5 27v12q0 37 11 125t11 109q10 54 22.5 98t36.5 90t55.5 77t80 50.5t108.5 19.5q50 0 94.5 -24t74.5 -60t52.5 -79t32.5 -81t10 -65v-49q0 -1 -1 -8.5t-1 -14.5v-450q0 -1 1 -8t1 -11v-32q0 -51 -5 -85.5t-5 -54.5l-29 -288l-12 -60q-7 -46 -14.5 -78.5 t-24.5 -71.5t-40 -63t-61.5 -40.5t-88.5 -16.5q-42 0 -105 28.5t-117.5 82.5t-58.5 112q-24 172 -24 445v26q-9 203 -9 283zM135 942q0 -3 2 -44t2 -44l6 -330q0 -43 0.5 -69.5t2.5 -68.5t6.5 -69t13 -63t20.5 -59t30.5 -47.5t42 -39t55.5 -23.5t71 -9q89 0 119 63l20 47v13 q0 37 21 135v-2q41 308 41 387v633q0 59 -67 140t-130 81q-26 0 -68.5 -20t-64.5 -40l-41 -36q-8 -8 -16 -36t-8 -34q-21 -61 -34 -144t-16.5 -135.5t-7.5 -144.5v-41z" />
<glyph unicode="P" horiz-adv-x="698" d="M61 547v26q0 2 2.5 11.5t2.5 11.5q0 14 -5 29l2 352v156q0 260 19 450q0 11 3 22t14.5 22t31.5 11q156 -16 234 -65h-3l37 -23q29 -18 56 -39.5t62 -61t60 -84.5t42.5 -111t17.5 -140q0 -124 -41 -232t-111 -184.5t-161 -126.5t-193 -67q0 -34 6 -129t6 -142v-55 q0 -184 -37 -184q-23 0 -28.5 6t-5.5 29q0 30 2 96t2 106q0 53 -7.5 157t-7.5 159zM127 856q0 -8 3 -116t3 -154q23 5 69.5 18t61.5 17q14 3 45.5 22t77 59t85.5 91.5t68.5 129t28.5 162.5q0 52 -15 111t-48 122t-80.5 114.5t-119 86.5t-156.5 40v-46q0 -59 -7.5 -184.5 t-7.5 -187.5v-33q0 -33 -4 -43v-125q0 -4 -1 -22.5t-2 -35.5t-1 -18v-8z" />
<glyph unicode="Q" horiz-adv-x="679" d="M61 936v209q0 33 1.5 67t8.5 85t17.5 95t31 91t47 80t68 54t91.5 21q64 0 144 -77.5t85 -143.5q47 -203 47 -401q0 -31 -7 -90t-7 -88q0 -16 3 -47t3 -46q0 -38 -5 -81.5t-5 -67.5q0 -17 2 -56t2 -59q0 -33 -2 -98.5t-2 -103.5v-37l-9 -62q-3 -40 -8 -59l17 -31l4 -10 q39 -49 53 -72l21 -35v2q46 -75 104 -131l18 -28q0 -47 -36 -47q-8 0 -17 3.5t-18 11t-17 15t-17.5 19.5t-16 20.5t-15 22t-12.5 20t-11 18.5t-8 13l-90 133q-19 -19 -40.5 -27.5t-36.5 -10t-46 -1.5q-48 0 -117 16.5t-112 40.5q-102 70 -102 273v26q-11 250 -11 574z M123 1042q6 -41 6 -94v-282q9 -90 12 -231.5t11 -217.5q0 -20 20 -47l12 -23q34 -22 97 -43.5t108 -29.5h8q88 0 90 28l-184 269q-8 16 -8 26l2 13q17 24 37 24t35 -26v2l32 -52h-2q2 -4 4 -4l64 -94q11 -11 18 -29l19 -26q2 0 10 -10q2 10 2 30v56q0 4 -1 13t-1 13v43 q0 28 3 82t3 109q0 8 -1 24t-1 23v74q4 23 4 69v62q0 10 -1 31.5t-1 33.5q0 69 12 113v63q0 196 -49 363l-6 20q-10 38 -62 96t-87 58q-19 0 -35.5 -3.5t-27.5 -6.5t-22.5 -14t-17 -15.5t-14.5 -21.5t-11.5 -21.5t-12 -27.5t-11.5 -27l-12 -29l-3 -9l-3.5 -10.5t-1.5 -5.5 l-33 -256v-82z" />
<glyph unicode="R" horiz-adv-x="692" d="M63 449l11 176q0 11 -2 37t-2 40v9q0 136 6 176q0 3 -1 11.5t-1 10.5q0 25 4 33q0 8 -1 39t-1 43l-6 119q-4 78 -4 119l-3 73v8q-1 45 9 147q10 112 10 126l43 20q31 0 73.5 -14t53.5 -14l92 -49q132 -80 160 -355l2 -51q0 -177 -81 -331t-232 -244q47 -54 143 -150l6 -8 q12 -12 12 -14l148 -187q21 -31 66 -87t63 -83q0 -51 -35 -51q-15 0 -26 11.5t-20.5 30t-14.5 23.5l-29 46l2 -3l-139 166l-56 76l-67 70q-8 8 -51 56t-62 61v-13q1 -35 5 -103.5t5 -103.5v-284l-20 -37q-19 0 -30.5 5t-16 16.5t-5.5 19.5t-1 25v6v69q0 28 2 87.5t2 90.5 q0 22 -5.5 66t-5.5 70zM131 1358q0 -64 3 -185.5t3 -156.5v-125q0 -123 4 -258q37 15 62 35l28 20q106 76 154.5 202t48.5 269v21q-2 79 -15.5 135t-45 106t-90 84t-146.5 56q-6 -102 -6 -203z" />
<glyph unicode="S" d="M61 1223v47q0 72 37.5 156t110.5 155l22 18q13 13 41 25l29 14h86q23 0 38 -24t15 -51q-48 0 -61 8h-64q-10 0 -18 -8l-21 -15q-6 -8 -43 -45l-14 -10q-41 -49 -59 -104t-29 -154v-33q0 -70 17 -114.5t59 -102.5q20 -28 80 -115.5t94 -132.5q71 -156 98 -237.5t27 -149.5 q0 -39 -5 -78t-22.5 -90.5t-47 -89.5t-84 -65t-126.5 -27h-14q-39 0 -76 11t-41 28l-2 8q0 15 11 24t26 9q12 0 40.5 -2t43.5 -2q92 0 160.5 66.5t68.5 181.5q0 12 -6 37.5t-6 41.5q-13 67 -30.5 121.5t-45 104.5t-47.5 80t-59 84l-15 16h2q-97 128 -133.5 216.5 t-36.5 197.5z" />
<glyph unicode="T" horiz-adv-x="866" d="M61 1604q0 17 15 34h35q5 0 22 -2t19 -2h393q8 -4 20 -4h53t52.5 -1.5t53 -4t40.5 -6.5t31 -12.5t10 -18.5q0 -12 -10 -23.5t-27 -15.5q-48 0 -82 11q-1 0 -3 -1.5t-3 -1.5q-55 0 -93.5 4.5t-47.5 4.5h-50q-33 0 -44 -8t-11 -27v-43q0 -15 2 -40t2 -36l-2 -53 q-2 -18 -2 -66q0 -38 2 -134t2 -142v-96q0 -27 -4 -43v-41q0 -17 -4 -41v-70q0 -21 2 -58.5t2 -56.5q0 -41 -6 -112t-6 -105q0 -3 2 -38.5t2 -37.5v-282q-10 -20 -23.5 -25.5t-44.5 -5.5v430q7 62 7 160v141q0 97 6 142v14q0 47 -3 148t-3 151q0 33 4 93.5t4 94.5 q0 19 -2 65t-2 68v35q0 17 -4 17h-89h-44.5t-46 1t-48 4t-38 7t-29 11.5t-9.5 17.5z" />
<glyph unicode="U" horiz-adv-x="847" d="M61 707q0 48 4.5 145t4.5 145v250l10 82v62q0 9 -4 99t-4 146h63q0 -59 3 -162.5t3 -154.5q0 -102 -8 -312.5t-8 -320.5q0 -5 16 -168l11 -100q0 -110 25 -172.5t99 -132.5q5 -2 9 -2l98 -35h16q28 0 97 -6h10q35 15 63.5 50t49 88.5t31 90t24.5 94.5v8q0 12 4 55t4 44 l20 278q0 25 5.5 71t5.5 69v118q0 4 5 39.5t5 46.5v60q0 50 -5 155t-5 158v61q-6 6 -6 13q0 10 17 30.5t28 20.5q34 0 34 -37v-485q0 -68 -8 -204.5t-8 -201.5v-37q0 -4 1 -12t1 -12v-23l-20 -102q-2 -95 -25 -174l-22 -76q-14 -46 -23 -73.5t-29 -66.5t-42 -60.5t-57 -37.5 t-79 -16q-26 0 -48 1t-63 8t-74 19.5t-71.5 37.5t-65.5 59t-46.5 88t-22.5 121q0 63 -11.5 183.5t-11.5 187.5z" />
<glyph unicode="V" horiz-adv-x="909" d="M61 1583q0 22 13 35.5t22 13.5q32 0 60 -155q0 -12 18 -74t23 -105l18 -86l49 -153q-1 -26 24.5 -65t28.5 -60l13 -115q0 -26 4 -44t4 -21l14 -74q5 -23 21 -70l6 -20q24 -52 27 -101q11 -38 44 -145.5t52 -173.5l4 31l18 65q0 6 4 10l33 168l10 29q10 24 13 51l6 54 l26 104l33 203l6 71q0 25 16.5 83t20.5 83q3 5 32.5 153t35.5 167q0 5 1.5 22t2.5 26.5t3 26t4.5 26.5t6.5 21.5t10 18.5t13 10q24 0 35.5 -8t11.5 -29q0 -46 -25 -149q-23 -93 -82 -401l-116 -596q0 -7 -4.5 -15.5t-4.5 -9.5l-14 -78q0 -49 -30 -181t-70 -132 q-24 0 -58 100.5t-51 184.5l-8 36q-19 69 -49.5 175.5t-42.5 151.5t-24.5 118t-16.5 151q-4 10 -11 26t-11 26t-7 14l-6 12q-27 59 -50 141t-30 130l-18 69q0 1 -1 12t-1 17l-23 76l-20 102q0 1 -6.5 18t-6.5 29z" />
<glyph unicode="W" horiz-adv-x="1284" d="M61 1581q0 23 5.5 32t27.5 9q35 0 35 -61l12 -125q0 -4 2.5 -19t3.5 -16l7 -39q15 -37 18 -80l23 -102q0 -16 8 -69.5t12 -63.5l43 -203q0 -36 14.5 -89t14.5 -89q5 -77 38.5 -237.5t43.5 -223.5l71 198q15 41 60 138.5t57 97.5h25q25 -78 68 -169.5t74.5 -156 t35.5 -92.5l31 -63q3 -14 26 -58q25 97 33 144q33 190 64.5 310.5t33.5 131.5v-2q49 304 111 494l20 63q2 25 13.5 68t22.5 73.5t11 28.5h-12q12 78 43.5 151.5t63.5 73.5l2 -51q0 -13 -25.5 -110t-34.5 -113l2 2q-14 -30 -16 -83t-8 -69l-19 -53q-28 -75 -28 -110l-31 -156 q-12 -60 -14.5 -74.5t-8.5 -39t-13 -52.5t-31.5 -133.5t-59.5 -263.5q-8 -35 -19 -103t-22.5 -115t-30.5 -81l-28 -43q-42 0 -76 80l-4 8v-2l-92 209q-25 52 -49.5 113.5t-37 93.5t-14.5 32q-41 -90 -43 -96q-14 -14 -31.5 -73t-23.5 -70q0 -18 -29.5 -93t-32.5 -102 l-12 -39q-2 -17 -11 -32t-26 -15q-21 0 -33 36.5t-21 112.5t-11 87l-19 102q-23 116 -28 166l-19 133q-1 8 -5 39t-10.5 71.5t-17.5 96.5l-90 444q-2 12 -8.5 38t-10 46.5t-3.5 40.5v15q0 20 -8.5 68.5t-8.5 82.5z" />
<glyph unicode="X" horiz-adv-x="886" d="M61 1597q0 22 3.5 25.5t25.5 3.5q32 0 105 -158q59 -132 110 -276l113 -315q10 -30 20 -48q5 15 16 47.5t17 49.5l94 241q0 9 6 15l-2 -2q3 15 13.5 40.5t11.5 28.5l76 199l65 147q14 41 47 41q31 0 31 -41q-50 -93 -78 -163l-82 -209v-9l-137 -356l-29 -88q-2 -2 -2 -6 q0 -19 17 -39l10 -20q45 -91 197 -437q42 -73 86 -180l10 -20q20 -30 20 -43q0 -8 -14 -23.5t-23 -15.5q-22 0 -30 16q-11 16 -41 86l-39 84q-31 67 -116.5 267.5t-108.5 242.5q-28 -52 -58.5 -144.5t-56.5 -156.5l-45 -107q-6 -27 -16 -60t-26 -76.5t-36 -72t-39 -28.5 q-14 0 -23.5 11.5t-9.5 21.5q0 17 25 59l-2 -2q7 20 20.5 55.5t18.5 50.5l24 68l37 80q5 28 27 84l45 117l29 59q6 15 15.5 53.5t20.5 55.5l-4 12q-14 14 -28 47l-70 182q-27 57 -68 179t-55 153l-69 154q-48 75 -48 120z" />
<glyph unicode="Y" horiz-adv-x="825" d="M61 1585q0 37 31 37q19 0 46.5 -58.5t27.5 -78.5l37 -94l14 -27q0 -7 13 -28t36.5 -60t40.5 -76l37 -80l21 -43l36 -84q2 -6 8 -28.5t15.5 -38t28.5 -33.5v2q0 6 4 18q51 148 57 170l14 56q26 101 89.5 262t113.5 239q4 -4 13.5 -6.5t14.5 -10.5t5 -30l-176 -489 q-9 -23 -39 -127l-51 -158q-15 -15 -15 -223v-37q0 -7 2 -65.5t2 -75.5q0 -11 -4 -15q0 -20 4.5 -52.5t4.5 -39.5v-198q0 -5 2 -37t2 -35v-21q0 -7 -9.5 -17t-17.5 -13q-10 0 -25.5 18t-15.5 23q0 56 -4 84v39q0 13 2 49.5t2 56.5q0 43 -8 313q0 3 2 32t2 36q0 3 -2 28 t-2 29v107q-12 20 -27 55l-133 287q-15 30 -76 138t-84 167z" />
<glyph unicode="Z" horiz-adv-x="849" d="M61 35q7 32 29 71v-2l6 15q63 135 167 381t140 327l33 80q0 13 5.5 31.5t10 28.5t17.5 35t14 28l9 12l-3 -2q6 13 16.5 37.5t16.5 36.5l35 76l33 88q6 17 25.5 74.5t38.5 105.5t44 94h-12q-42 0 -130 8.5t-128 8.5q-43 0 -137 -8h-19q-3 0 -8 1t-8 1l-100 -4l-29 -7 q-14 1 -24.5 16t-10.5 31l10 29l29 4q8 0 23.5 -1t23.5 -1h45q24 0 72 2t70 2h51q41 0 121.5 -8t121.5 -8h13q8 0 29.5 2t33.5 2h27l20 -10l6 -23q-25 -63 -38 -86l-21 -35q-32 -70 -89.5 -229.5t-96.5 -241.5l-183 -432q-162 -379 -182 -430l-16 -31q-1 -1 -8 -22l110 -6 q47 0 139.5 4t139.5 4h49q21 0 32.5 -1t29 -4.5t28 -13t16.5 -24.5q-3 -32 -34 -35q-26 0 -77 3t-77 3q-39 0 -113 -4t-112 -4q-4 0 -12.5 1t-12.5 1l-88 2q-50 -4 -80 -4z" />
<glyph unicode="_" horiz-adv-x="1142" d="M61 -199q0 27 15 27h2l41 -6l16 2q16 0 47 2.5t51 3.5h15q3 0 8.5 -1t9.5 -1l439 -10q4 1 16.5 3t23 3.5t15.5 1.5h26q22 0 50 4h41q12 0 44 2t64 2h10q65 0 86 -33q0 -40 -26 -49q-14 12 -70 12l-213 -2l-55 -8l-88 4q-4 6 -49 6l-107 5q-3 0 -28.5 -2.5t-28.5 -2.5h-49 q-4 0 -11.5 2.5t-11.5 2.5l-22 -2q-2 0 -6.5 -1.5t-6.5 -1.5l-164 -4q-3 0 -7.5 -1t-6.5 -1h-43q-27 0 -27 43z" />
<glyph unicode="a" horiz-adv-x="634" d="M61 236v157q3 99 70.5 175.5t130.5 76.5q66 0 114 -6.5t84.5 -16.5t37.5 -10q0 3 1 9.5t1 9.5v20q0 7 1 19t1 18q0 141 -101 141h-233q-7 0 -20.5 12.5t-14.5 22.5q0 23 10 35.5t18.5 14t22.5 1.5h228q4 0 29.5 -7t35.5 -11q44 -27 70 -93t26 -145q0 -43 -6 -81 q4 -12 4 -35q0 -27 -10 -39v-113q0 -41 2 -135.5t2 -151.5v-57q0 -17 -12 -33t-23 -16q-16 0 -26 31t-12 63q-55 -19 -119.5 -34t-93.5 -15q-76 0 -139 45t-79 148zM129 336q0 -108 35.5 -148.5t95.5 -40.5h37q17 0 79 24t101 24q11 0 14 3.5t3 18.5q0 29 -7 43v260l-135 47 h-76q-61 0 -104 -68.5t-43 -162.5z" />
<glyph unicode="b" horiz-adv-x="673" d="M61 1325v305l66 8q14 -567 14 -692v-104q29 23 47.5 35.5t46 24t52.5 11.5q69 0 120.5 -25t83.5 -73.5t51 -99.5t36 -125l34 -266v-41q0 -139 -60.5 -198.5t-168.5 -59.5q-38 0 -75.5 12.5t-55 22.5t-55 38t-45.5 33v-115q0 -13 -11.5 -22.5t-21.5 -9.5q-18 0 -29.5 15 t-16 43t-6 50t-1.5 53q0 49 7 129t7 113q0 31 -2 45v150q0 14 -5 89.5t-7 86.5v196q0 14 -2.5 177t-2.5 194zM145 696q0 -112 11 -303q0 -6 -2 -56.5t-2 -57.5v-35q0 -1 -1 -3.5t-1 -4.5q8 -5 14 -5l69 -53q72 -65 138 -65q81 0 121 34.5t40 135.5v26q0 57 -7 120.5 t-24 133.5t-42 125t-64.5 91t-87.5 36q-36 0 -63.5 -15.5t-63.5 -49.5l-16 -15q-12 -12 -19 -14v-25z" />
<glyph unicode="c" horiz-adv-x="583" d="M61 401v15q7 102 7 112l16 103q10 63 33 125t64 110.5t89 48.5h121q19 0 46.5 -16.5t27.5 -42.5q0 -15 -1 -21.5t-9.5 -13t-24.5 -6.5q-18 0 -46 8t-58 8q-183 0 -183 -397q0 -48 1.5 -77t7 -70t19.5 -71t36 -50q24 -23 80.5 -41.5t77.5 -18.5q15 1 36.5 1.5t33.5 1.5 t26.5 3.5t25.5 8.5q35 0 35 -37q0 -44 -21 -58t-57 -14h-49q-33 0 -72.5 7t-84.5 22t-82 44.5t-52 68.5q-29 71 -43 247z" />
<glyph unicode="d" horiz-adv-x="669" d="M61 375q0 22 2.5 87.5t2.5 90.5l6 20q39 151 131.5 246.5t210.5 95.5h35q3 0 14 -2t31.5 -9.5t35.5 -18.5l2 381q0 26 1.5 91.5t1.5 108.5v27q0 14 -2.5 54.5t-2.5 58.5q0 7 5.5 11.5t15 6t18.5 2t20 0.5h15l-2 -215q0 -34 -2 -95t-2 -87q0 -229 5 -371.5t5 -150.5v-72 q0 -6 -1 -18t-1 -17l-6 -215q-2 -59 -2 -205q0 -136 8 -149v-21q0 -22 -11 -36.5t-32 -14.5q-37 0 -37 70l2 14l-4 -2h2q-4 -2 -16 -2h-70q-49 0 -95.5 7t-100 29t-92.5 57.5t-65 98t-26 144.5zM133 422q0 -79 18 -139t45.5 -94t66 -55t73 -27.5t72.5 -6.5q11 0 71 6l35 5 q1 0 2 7.5t3.5 16t6.5 10.5l9 473q2 61 2 166v45q-17 -14 -41 -14q-10 0 -27 8t-45 8q-121 0 -206 -108.5t-85 -300.5z" />
<glyph unicode="e" horiz-adv-x="655" d="M61 195q0 7 2.5 122.5t2.5 149.5v29l6 82q10 141 34 208t101 123l14 6h119q18 -6 31 -6l102 -51q49 -25 85 -107.5t36 -152.5q0 -14 -2.5 -28.5t-8.5 -33.5t-20 -32t-35 -17h-39q-41 0 -113 -4t-108 -4h-51q-27 9 -27 39q0 17 86 32t130 15h65q42 0 47 29l-35 117 q-18 60 -74 96.5t-118 36.5q-49 0 -81.5 -35t-47 -99.5t-19 -122.5t-4.5 -136v-80q0 -93 6 -191q5 -94 189 -94q121 0 151 45l11 35q5 18 8 27.5t9.5 22.5t15 18.5t20.5 5.5t22.5 -10t10.5 -29v-8q0 -18 -4.5 -39t-18.5 -48.5t-36 -48.5t-61.5 -36t-90.5 -15q-34 0 -54 0.5 t-56 4t-59 10.5t-52 21t-46 33.5t-29.5 50t-13.5 69.5z" />
<glyph unicode="f" horiz-adv-x="339" d="M-14 -399q0 38 32 47q35 59 59.5 166.5t24.5 187.5v49q0 9 -2 132.5t-2 148.5v289q0 75 -5 186t-5 172l10 455q4 8 4 28l39 117q28 53 99 53q32 0 32 -22q0 -25 -24 -39l-10 -8q-24 -3 -40 -33t-23 -88t-9 -114.5t-2 -143.5q0 -99 3 -304.5t3 -306.5q4 -32 4 -59 q0 -20 -2 -59.5t-2 -55.5q0 -68 3 -198t3 -195v-67q0 -58 -18 -145t-55.5 -162.5t-79.5 -75.5q-14 0 -20.5 1.5t-11.5 12t-5 31.5z" />
<glyph unicode="g" horiz-adv-x="626" d="M63 381q1 72 6.5 125t19.5 97t24 67t34.5 70t36.5 71q23 47 104 79t142 32q51 0 78 -27q6 6 16 6q17 0 27 -16t10 -35q0 -18 -6 -49t-6 -33v-141q0 -23 3 -122t3 -122v-277q0 -19 5 -196.5t5 -200.5v-139q0 -6 -2 -31t-2 -28v-29q-3 -58 -5.5 -98.5t-8.5 -96.5 t-13.5 -95.5t-20.5 -87t-29.5 -80t-40.5 -65t-53.5 -52.5t-68.5 -32t-85 -12h-35q-35 6 -35 52q0 35 39 47q14 -4 37 -4q49 0 106 24l14 12l48 64l4 8l4 8q71 181 71 488v332q-6 54 -6 67l-2 51h-28q-4 0 -44.5 -8t-66.5 -8q-60 0 -139.5 59.5t-93.5 110.5q-46 28 -46 215z M141 389q0 -117 55 -203t134 -86h71l82 15v108q0 53 -3 154.5t-3 212.5v69q0 121 6 170q-11 0 -24.5 6.5t-26.5 6.5q-19 0 -31 -6l-82 -29q-52 -24 -94 -95t-63 -156.5t-21 -166.5z" />
<glyph unicode="h" horiz-adv-x="684" d="M61 143q0 6 1 18.5t1 18.5v66q0 57 5.5 164t5.5 157v221l8 357q0 57 -5 169t-5 169l-4 145q15 -2 29 -2t46 -4q0 -143 7.5 -416.5t7.5 -406.5v-41q90 160 252 168q43 -2 75.5 -17t50 -32.5t30.5 -50.5t17 -51t9 -56.5t6 -46.5l10 -60v-385q0 -18 4.5 -51.5t5.5 -46.5 l5 -59q-1 -19 -4 -31t-15.5 -25t-34.5 -18l-22 18l-8 21v41l-7 37v460q-1 14 -2.5 52t-4.5 64.5t-11 59t-26 56t-46 35.5h-12q-291 0 -291 -449q0 -40 3 -122.5t3 -123.5v-10q0 -12 4.5 -36t4.5 -31v-11q-9 -46 -45 -53q-48 41 -48 139z" />
<glyph unicode="i" horiz-adv-x="276" d="M61 1241q0 74 80 96q30 0 52 -24.5t22 -48.5q0 -27 -22 -53t-50 -44q-36 0 -59 22t-23 52zM106 0q5 50 5 63q0 3 -1 8t-1 7l-3 155l13 156q0 10 2 24t2 19q-4 14 -4 57l-4 166q0 13 -2 38.5t-2 41.5v10q0 7 1 26.5t1 27.5v100l32 19q27 -10 35 -26.5t8 -45.5v-29 q0 -5 -1 -16t-1 -17q0 -9 2 -26.5t2 -20.5l7 -237q0 -82 -5.5 -247t-5.5 -212v-41h-80z" />
<glyph unicode="j" horiz-adv-x="303" d="M-254 -774l4 6q23 10 68 13t168 3q39 0 67.5 26t43.5 69t22 91q6 41 6 85v12l-2 147q-1 55 -6.5 197t-5.5 223q0 120 5 274t5 197l-2 234q3 52 20 82t33 30q12 0 21 -18t10 -47q0 -39 -4 -57q0 -10 1 -40t1 -40q-15 -366 -15 -582q0 -74 9 -281l10 -294q0 -96 -9 -166 t-31 -112.5t-42 -67.5t-58.5 -35.5t-62.5 -12.5t-72 -2h-71q-16 0 -63.5 18.5t-47.5 41.5zM100 1202q0 72 72 96q28 0 49 -24.5t21 -48.5q0 -43 -70 -92q-32 0 -52 20.5t-20 48.5z" />
<glyph unicode="k" horiz-adv-x="585" d="M61 47v53q0 79 5.5 244t5.5 250v215q-2 37 -2 123v137q0 18 -1 53.5t-1 51.5q0 125 10 194v55q0 34 -3 101.5t-3 101.5h73v-268q0 -47 -2 -151.5t-2 -162.5v-38q0 -114 6.5 -333t6.5 -325v-55q89 195 206 416q6 12 14.5 33t17 38.5t20.5 34.5l-2 -2l49 84q6 6 10 8 t11.5 3.5t17.5 6.5l24 -63q-60 -84 -141 -270l-62 -129v-9q5 -38 82 -161h-2l15 -23q14 -22 47 -89t63 -110l-4 -20q-12 -45 -45 -51q-6 2 -18 14l-8 6q-29 40 -70 132.5t-80 133.5l-33 64l-51 -98q-9 -16 -25.5 -44.5t-25.5 -45t-17 -35.5t-8 -31q0 -73 -45 -78 q-20 4 -33 39z" />
<glyph unicode="l" horiz-adv-x="262" d="M82 1221q0 39 4 145v18q0 30 3 105.5t3 107.5h70v-88q0 -8 -3 -97.5t-3 -96.5v-58q0 -42 4 -112.5t4 -95.5q0 -3 -1 -10.5t-1 -10.5v-135q0 -111 9 -332.5t9 -335.5v-82q0 -2 -1 -7.5t-1 -8.5v-96q-7 -33 -39 -33q-16 0 -27.5 20.5t-11.5 36.5l6 115q-14 243 -14 444 q0 35 2 58q-2 0 -2 8v49q0 150 -4 424v-2q-1 3 -3.5 33t-2.5 37z" />
<glyph unicode="m" horiz-adv-x="821" d="M61 922q0 36 54 36q8 -4 20 -4q5 -47 8 -113.5t4 -80.5l3 -31q23 67 68.5 117.5t117.5 58.5q102 -27 106 -184q24 73 83 138t126 65q30 0 53 -24.5t34 -61t16.5 -68t5.5 -55.5q0 -51 -1 -157t-1 -161l-4 -352q-5 -25 -37 -25q-35 13 -35 31v680q0 9 -1 21t-4 35.5 t-12.5 39t-23.5 15.5q-60 0 -103.5 -85.5t-48.5 -203.5l-20 -127q-8 -53 -11.5 -155t-6.5 -134l-9 -86q0 -2 -2.5 -6.5t-12 -10t-24.5 -5.5q-18 0 -26 8.5t-8 38.5v18q0 26 4 76.5t4 77.5q-10 166 -10 211v22q0 24 2 69t2 71q0 48 -4 84l-9 47q-2 4 -2 18l-2 6v-2 q-17 51 -26 51h-6l-17 -12q-31 -18 -53.5 -56.5t-32.5 -70t-20 -78.5l-27 -157q0 -37 -12 -97v-313q0 -14 -13 -24.5t-26 -10.5q-23 0 -30 8.5t-7 26.5v63q-4 6 -4 23q0 16 4 20q0 25 -4 144.5t-4 251.5q0 14 4 18v86q-19 136 -19 275z" />
<glyph unicode="n" horiz-adv-x="587" d="M53 901q0 24 6.5 35.5t26.5 15.5q55 -9 55 -338q0 -26 -0.5 -48.5t-1 -35t-0.5 -14.5l2 -2l3 23q2 23 8 59.5t16 81t28 89t41.5 81t58.5 59.5t77 23q65 0 107.5 -53.5t45.5 -112.5v-160q0 -54 -6 -164t-6 -164q0 -18 2 -48.5t2 -45.5t-3 -40t-3 -38l6 -26q0 -2 1 -7.5 t1 -7.5v-12q-14 -40 -45 -45l-18 2q-22 20 -27 62v30q0 27 5 78.5t5 77.5l-6 299q6 48 6 154q0 40 -4.5 65.5t-22 45.5t-48.5 20q-52 0 -91 -85.5t-59.5 -207.5t-35.5 -244t-29.5 -207.5t-32.5 -85.5q-4 0 -8 4l-25 4l-14 25l-7 264q9 53 9 135q0 91 -9.5 263t-9.5 196z" />
<glyph unicode="o" horiz-adv-x="565" d="M61 428q0 15 1 49t1 53v31q0 33 2 65.5t8.5 77t20 81.5t33 70t52 52t73.5 19q18 0 35 -11q1 0 2 2.5t2 2.5h41q5 0 40 -18t44 -28l43 -49q36 -42 43 -182l2 -90v-23q0 -76 -10 -161t-30 -171t-58 -142t-87 -56h-77q-6 0 -20 6.5t-41.5 29.5t-53.5 58q-54 98 -64 258 q-2 25 -2 76zM131 500q3 -211 38.5 -314.5t121.5 -103.5q39 0 68 47t44.5 121t23 149t7.5 148v16q-6 273 -115 273q-9 0 -28 4t-41 4q-4 0 -17 -9.5t-16 -9.5q-86 -73 -86 -301v-24z" />
<glyph unicode="p" horiz-adv-x="589" d="M61 877v32q0 15 3.5 58t3.5 61l38 16l25 -49q4 -35 4 -55v-98q84 84 154 84q29 0 72.5 -25t60.5 -51l53 -86v2q53 -88 53 -320q0 -98 -29 -190t-83 -160l-23 -18q-70 -60 -104 -60q-49 0 -82 8.5t-62 34.5q0 -133 5.5 -367.5t5.5 -279.5v-10q0 -4 -1 -12.5t-1 -12.5v-16 q0 -194 -35 -194q-33 0 -39 40v48q0 24 3 66t3 63v39q-10 333 -10 839v240q-4 23 -4 94v102q-11 52 -11 177zM145 170h5l67 -55l4 -4h88q0 1 9 6t21 12t17 12q52 43 76.5 130t24.5 188q0 148 -54 261.5t-133 113.5q-30 0 -63.5 -35t-61.5 -86v-543z" />
<glyph unicode="q" horiz-adv-x="643" d="M61 340q0 282 106 433t267 151q31 0 49 -9q23 9 54 9v-215q0 -26 1 -73.5t1 -64.5v-49q0 -124 -4 -362h24q16 -31 16 -51q0 -21 -32 -41l-4 -7l-9 -301q0 -102 5 -604q16 62 26 99.5t26.5 87.5t31.5 75t30 25q37 0 37 -61l-2 -17l-12 -27q-4 -14 -24.5 -78t-29.5 -93 t-21.5 -78.5t-18.5 -87.5l-21 -115l-16 -23q-7 -7 -11 -19t-9 -18t-21 -6q-32 0 -39 25v166q0 17 -1 49t-1 49q0 7 1 21t1 18v61q0 15 -2 56t-2 63v185q0 12 1 33.5t1 31.5v92q0 7 -1 23t-1 24v275q0 20 -2 28q-53 -16 -113 -16q-95 0 -145 29q-56 31 -96 132.5t-40 174.5z M137 412q0 -308 205 -308q69 0 115 21q0 63 2 173.5t2 176.5v256q0 7 1 22t1 23q0 62 -51 62q-78 0 -141 -62t-97 -158.5t-37 -205.5z" />
<glyph unicode="r" horiz-adv-x="583" d="M61 926l43 -4q17 0 35 -95t27 -198q39 84 86 144.5t117 109.5l34 18h-2q7 5 23.5 6t38.5 15q38 0 48.5 -17t10.5 -55q-69 0 -128 -39.5t-101 -105.5q-32 -39 -75 -124t-44 -124v-328q0 -38 6 -53v-62q-16 -34 -41 -34q-43 0 -43 57v90q0 4 -1 13t-1 14v270q0 58 -3.5 126 t-7.5 117.5t-11 131.5t-11 127z" />
<glyph unicode="s" horiz-adv-x="505" d="M61 680v22q0 133 203 216h72q20 0 35.5 -16.5t15.5 -31.5q0 -22 -25 -22q-4 0 -34 6q-53 -3 -111 -33l-6 -6q-35 -26 -47.5 -50.5t-20.5 -76.5v-20q0 -34 13.5 -58.5t44.5 -52.5l26 -25q17 -19 53.5 -56t60 -63.5t50 -62t40 -72.5t13.5 -75q0 -30 -8 -59.5t-30.5 -64.5 t-73.5 -57t-125 -22h-12q-35 0 -67.5 7t-39.5 20l-6 6q0 18 12 28.5t31 10.5h16q1 0 4 -1t5 -1h45q70 0 118.5 29t48.5 89q0 50 -27 101t-54 79t-68 64l-6 12q-80 73 -113 124.5t-33 111.5z" />
<glyph unicode="t" horiz-adv-x="622" d="M25 893q0 37 51 37h18q0 96 -4 295t-4 305v16q0 3 1 9.5t1 9.5l2 61h72v-29q0 -27 -1 -75.5t-1 -71.5q0 -102 3 -270t3 -256q52 -6 108 -6h109q44 0 64.5 -0.5t46.5 -3.5t36.5 -10.5t10.5 -20.5q0 -11 -12 -29t-19 -18l-31 4q-2 0 -7.5 1t-8.5 1h-29q-11 0 -39.5 1 t-42.5 1h-71q-13 0 -53.5 1t-63.5 1l-2 -111q-4 -16 -4 -51q0 -21 3 -57.5t3 -48.5l-2 -109v-6q0 -41 14 -100q14 -63 14 -97q0 -82 57 -135.5t128 -56.5q25 6 87 47t75 41q22 -17 24 -19l-2 -41q-3 -44 -81 -77t-124 -33q-71 0 -156 81.5t-85 180.5q-2 20 -8.5 61t-8.5 62 v41q0 17 -4 67v7q0 11 -4 65.5t-4 87.5q0 20 4 55.5t4 47.5v100l-45 4q-22 0 -22 41z" />
<glyph unicode="u" horiz-adv-x="645" d="M59 573q0 345 43 345q12 0 25.5 -15t13.5 -29v-67q0 -310 -6 -457v-14q3 -47 6 -76t15.5 -67.5t33.5 -59.5l39 -39q6 -6 19 -12t18 -6h27q188 0 188 387v115q0 237 39 333q15 0 35 -9t25 -17v-97q0 -5 -5.5 -74t-5.5 -85v-62q-18 -180 -18 -207q0 -178 24 -319 q9 -11 9 -29q0 -15 -10.5 -29t-26.5 -14q-18 0 -30.5 11t-19 36t-9 45.5t-5.5 57.5v8l-28 -53q-23 -41 -69 -62.5t-91 -21.5q-97 0 -161.5 82.5t-72.5 187.5v164q0 14 -1 65t-1 84z" />
<glyph unicode="v" horiz-adv-x="659" d="M61 874l7 33l24 17q41 -30 53 -111q11 -75 36.5 -165t61.5 -201.5t54 -174.5l29 -104l67 278q4 15 16 68t16 67t15.5 56.5t20.5 65t24 61.5t33.5 76.5t42.5 81.5q32 0 37 -48v-10q-18 -50 -33 -102l-45 -144q-31 -92 -72.5 -267t-58.5 -234l-24 -60q-11 -36 -43 -65 q-39 40 -61 92.5t-27.5 96.5t-16.5 103t-27 101l-18 37l-37 168v-2l-2 8v-2l-24 74q-37 106 -48 206z" />
<glyph unicode="w" horiz-adv-x="937" d="M61 883v2q0 42 29 49q24 -12 35 -73.5t17 -161t14 -144.5q5 -32 8.5 -119t9.5 -139v2q7 -24 12 -80t19 -90t49 -49q9 3 17 8t14.5 14.5t11 16t10 21t7.5 20.5t7.5 23.5t6.5 21.5l12 41q0 3 1 9t1 9l6 23q45 164 45 329q0 34 -3 103t-3 102q0 51 6 101q16 -4 25 -4 q4 0 10.5 1t9.5 1q21 0 21 -19v-184q0 -38 10 -223q1 -13 2.5 -56t3 -65t6.5 -55t13 -56l8 -33q2 -8 5.5 -26t6 -27t7 -24.5t8.5 -23.5t11.5 -18.5t16 -16t20.5 -10t27 -5.5h10q60 0 99 53.5t47 134.5q5 59 19 169.5t23 203.5t9 176v51q8 48 29 54q33 -5 37 -52l-5 -159 l-61 -527q-10 -78 -74.5 -137t-126.5 -59h-35q-34 8 -57 37l-37 40q-9 13 -16.5 28.5t-13.5 37.5t-8.5 34t-8 42t-6.5 37l-10 55l-10 -49q-34 -132 -61 -180q-37 -67 -91 -80q-40 0 -68 27t-43.5 88t-21.5 100t-14 121q-2 19 -3 28l-6 58q-3 68 -20 227.5t-19 245.5z" />
<glyph unicode="x" horiz-adv-x="622" d="M61 18l5 25l143 297q5 15 24 48.5t23 53.5v7q-58 119 -139 303l-56 129q0 14 10 24t23 10l4 -1q3 -1 8 -1l31 -10l13 -37q22 -55 76.5 -164t76.5 -165l8 14q14 32 33 57l8 27q39 125 67 176q40 72 101 111l27 -27q-15 -31 -42 -93t-38 -87l-53 -119q-19 -40 -40.5 -78.5 t-27.5 -54.5q5 -20 10 -25l6 -16q6 -19 15 -40t16.5 -37.5t21 -41.5t20.5 -38.5t24 -43t23 -39.5t26 -43.5t24 -40.5h-2l13 -20q17 -33 18 -47q0 -36 -35 -45q-44 23 -75.5 74t-58.5 114.5t-46 89.5l-10 33q-12 39 -29 72q-17 -34 -54.5 -124t-71.5 -147t-85 -108l-26 2z " />
<glyph unicode="y" horiz-adv-x="595" d="M61 770v107q0 44 70 49q4 -136 4 -207v-262q0 -54 2.5 -96.5t11 -95.5t24 -88.5t44.5 -60t68 -24.5l32 2l23 25q32 35 53 79t30.5 104t13 98.5t5 115t2.5 100.5v13l-2 -4v4q0 208 56 297q37 -37 37 -117v-29q-15 -287 -15 -798l-4 -97q-1 -21 -6.5 -70.5t-5.5 -74.5 l-21 -146q-8 -111 -79 -199t-177 -108q-22 0 -38 13t-17 34q3 29 29 39h47l10 9q47 18 76.5 49.5t43.5 73t21 81.5t15.5 91t19.5 85v-2q21 162 21 439q-13 -41 -25.5 -69.5t-33.5 -59t-52.5 -46.5t-71.5 -16q-50 0 -90 27t-62.5 70t-34 90.5t-11.5 95.5v18q-13 244 -13 461z " />
<glyph unicode="z" horiz-adv-x="542" d="M61 51q0 13 28.5 61.5t65.5 107t48 83.5l49 109q60 108 145 358l13 37l-2 14q-1 0 -3.5 1t-3.5 1l-24 4h-162q-24 0 -40 1t-38 5.5t-33.5 16t-11.5 29.5v18l27 25q42 0 133 -11l33 -4h112q84 0 84 -61q0 -15 -15.5 -79.5t-21.5 -76.5q-119 -326 -270 -590q86 -12 178 -12 q19 0 43 6q19 0 33 -13.5t14 -39.5q0 -31 -20 -35h-55q-41 0 -118 3t-118 3h-41l-12 4q-5 2 -11 14t-6 21z" />
<glyph unicode="&#xa1;" horiz-adv-x="258" d="M61 1556q0 16 16.5 29.5t31.5 13.5q18 0 27 -8t10 -15.5t1 -21.5v-12l-24 -24q-62 0 -62 38zM78 33v28q0 131 16.5 413t16.5 433q0 75 -10.5 229.5t-10.5 213.5l-2 32l8 17q14 18 37 18q15 0 35 -10l2 -84q27 -163 27 -369q0 -93 -5 -202t-13.5 -258t-12.5 -240 q0 -55 -2 -78v-16q-12 -73 -12 -146l-29 -20q-16 0 -25.5 2t-13.5 8.5t-5 11.5t-1 17z" />
<glyph unicode="&#xa3;" horiz-adv-x="800" d="M61 543q0 16 5.5 23.5t12 8.5t23 2.5t29.5 4.5h14q2 37 2 106v338q0 4 -2 55.5t-2 61.5v8q0 2 -1 6.5t-1 5.5v8q0 132 23 213t88 162l6 8q53 50 166 50q40 0 86 -23l61 -61h-6l4 -4q0 -37 -30 -37q-31 12 -52 23.5t-27.5 17t-16.5 9t-27 3.5q-40 0 -71.5 -14t-52 -34 t-35 -53.5t-22 -62t-11.5 -69.5t-4.5 -66t-0.5 -62q0 -32 2 -96t2 -94q0 -37 -3 -107t-3 -102v-31q0 -6 1 -17.5t1 -16.5v-66q0 -45 2 -57q16 0 57.5 3t71.5 3q80 0 80 -43q0 -41 -35 -41q-19 0 -47.5 3t-36.5 3h-18q-4 0 -10 -1t-9 -1h-8q-3 0 -19 -2t-24 -2v-254 q0 -46 -6 -76v2l-4 -39q39 19 88 19q33 0 70 -11l133 -45q86 -30 112 -36h35l11 10q25 20 55 20q0 -4 22 -4q-8 -53 -20 -61l-6 -6q-32 -43 -101 -43q-5 0 -38 15t-50 17l-94 29l-10 4q-80 33 -111 33q-33 0 -57.5 -12t-36 -26t-26 -26t-29.5 -12q-36 0 -39 43q0 3 3.5 18.5 t9.5 41.5t9 51v22q0 2 2 42.5t2 49.5v179q0 33 -2 51h-49q-35 0 -35 41z" />
<glyph unicode="&#xaa;" horiz-adv-x="626" d="M61 1464l19 35q84 100 262 127h8q47 0 84 -18t59 -48.5t37 -63.5t21.5 -70t9 -60t2.5 -41v-35q0 -76 -6 -135l8 -192l-12 -33l-6 -43q-6 -21 -6 -37l-37 -19q-28 0 -39 19v33q0 2 -1 2.5t-1 1.5q0 2 2 6q-36 -26 -97 -44t-98 -18q-95 0 -146.5 40t-53.5 112 q0 94 97.5 162.5t223.5 68.5q59 0 96 -18q5 36 5 82q0 4 -1.5 12.5t-1.5 12.5v24q-1 27 -7.5 60.5t-20.5 74t-43 67.5t-68 27l-76 -16q-42 0 -74 -26.5t-58.5 -57t-49.5 -35.5q-18 7 -24.5 16t-6.5 27zM143 981q0 -36 37.5 -59t91.5 -23q84 0 183 68q16 0 20 -2q0 23 2 63.5 t2 61.5q-2 14 -17 32t-36 27h-47q-91 0 -163.5 -50t-72.5 -118z" />
<glyph unicode="&#xab;" horiz-adv-x="931" d="M61 575v3q0 20 21 34l10 9q33 24 64 51t65 61t54.5 56t60 65.5t55.5 60.5q9 10 34 45t45 55.5t36 20.5q33 0 33 -28q0 -3 -11 -25q-16 -21 -34 -44t-33 -41.5t-37.5 -43.5t-34.5 -39t-37.5 -40.5t-34 -36t-35.5 -37.5t-32 -33l-37 -39l-57 -49l24 -17q56 -39 84 -69 l236 -193l73 -78q0 -10 -5.5 -26.5t-10.5 -22.5l-29 -4l-24 16l-94 88q-11 11 -31 27l-76 61q-90 86 -164 142v-2l-22 12l-45 41q-11 14 -11 20zM408 604q0 22 30 43l45 47l19 13l61 57q11 13 27.5 30.5t34 38t41.5 52.5l-2 -2q0 1 4.5 8t11 16t8.5 13l8 10q70 94 86 94 q17 0 24 -9t7 -34q-17 -37 -41.5 -74t-62 -79t-57 -63.5t-70 -70.5t-58.5 -57l-24 -25q8 -8 14 -10l29 -18q17 -17 22 -17l-2 4l78 -69q7 -7 23 -20t18 -13l66 -53l79 -78q6 -4 19.5 -15.5t19.5 -15.5l4 -16q0 -38 -32 -45q-18 0 -31 10l-111 106l-61 48l-86 77v-2l-49 33 q-30 17 -45 27t-31 27t-16 32z" />
<glyph unicode="&#xad;" horiz-adv-x="823" d="M61 621q0 36 70 36q42 0 131 -6t137 -6h150q59 0 86.5 -0.5t63 -3.5t49.5 -10.5t14 -20.5q0 -9 -16 -27t-25 -18l-43 4q-2 0 -10 1t-13 1h-39q-15 0 -53.5 1t-56.5 1h-98q-26 0 -113.5 2.5t-124.5 2.5l-78 4q-31 2 -31 39z" />
<glyph unicode="&#xba;" horiz-adv-x="747" d="M61 1223q0 33 11 94v-2q0 1 1 3t1 3l12 65l55 99l45 55q23 28 76 57t100 33l66 -18q2 0 10 -2h8q75 0 131.5 -61.5t82.5 -152t26 -192.5q0 -52 -23.5 -126t-76.5 -138l-13 -18l-53 -39l-22 -11q-78 -24 -125 -24q-73 0 -131.5 30t-92.5 77t-53.5 95t-25.5 95q-9 61 -9 78 zM137 1227q0 -37 6 -72q6 -34 21.5 -71.5t42 -78t71 -66.5t97.5 -26q55 0 102 27.5t74 67.5l33 49l26 153l-24 154q-8 49 -35 99t-76 73q-5 2 -28 5t-42 10t-24 22h-2q-19 0 -51 -14q-95 -49 -143 -137.5t-48 -194.5z" />
<glyph unicode="&#xbb;" horiz-adv-x="931" d="M61 291l5 16l118 109l70 55q21 15 37 31l76 69q5 0 22 13l41 28q-11 8 -22 25q-66 62 -108.5 105t-97 111t-83.5 128q0 25 7 34t24 9q3 0 7.5 -2.5t10 -8t11 -11.5t13.5 -15.5t13.5 -17t15 -19.5t15.5 -20q0 -2 2.5 -6t3.5 -4q16 -20 33.5 -45t27.5 -37.5t21 -18.5 l45 -53l57 -57l23 -15l43 -47q32 -18 32 -43q0 -15 -16 -32t-32 -27.5t-46 -26.5l2 2l-49 -35v2l-86 -77l-61 -48l-111 -106q-13 -10 -31 -10q-33 7 -33 45zM358 223l74 78l236 193q39 42 80 67v-2q15 10 16 10l12 11q-2 0 -2 4l-55 45l-37 39q-14 14 -65.5 68.5t-77 82.5 t-66 75.5t-70.5 88.5q-10 20 -10 25q0 28 33 28q16 0 36.5 -23.5t43 -55t35.5 -42.5q59 -67 96.5 -107t93.5 -93.5t109 -93.5l10 -9q20 -13 20 -34q0 -4 -2.5 -9.5t-5.5 -9.5l-2 -4l-45 -41l-22 -12v2q-2 -2 -24 -20t-44 -36.5t-50 -43t-46 -42.5l-76 -61q-50 -40 -80 -70 l-45 -45l-27 -16l-26 4q-17 23 -17 49z" />
<glyph unicode="&#xbf;" horiz-adv-x="768" d="M61 236q0 46 12 87t40 83t52 70.5t68 76.5l37 37q40 49 64 122t31 146v121q0 44 -2.5 129t-2.5 123q0 26 2.5 62.5t2.5 54.5l4 30q19 27 37 27q15 0 22.5 -13.5t7.5 -27.5q0 -6 -2 -36.5t-2 -35.5v-284q0 -1 2 -35.5t2 -40.5l-16 -164q-11 -77 -36 -130t-93 -126l-76 -76 q-24 -24 -55 -82.5t-31 -99.5q0 -83 62.5 -134.5t142.5 -51.5q8 0 82 22l37 12l47 27q46 26 65.5 49.5t32.5 61.5l16 47q17 68 27 162v22q0 32 -4 55l4 54q38 -27 48 -42.5t13 -43.5l5 -33l-9 -64q-16 -124 -39 -181q-56 -139 -213 -189q-85 -25 -127 -25h-36q-9 0 -33 8 l-12 6q-1 0 -3.5 1t-3.5 1l-59 27q-39 27 -75 85t-36 106zM346 1571q0 5 16.5 20t20.5 15q16 0 25.5 -13t9.5 -24l-4 -17l-23 -20q-10 0 -27.5 14.5t-17.5 24.5z" />
<glyph unicode="&#xc0;" horiz-adv-x="700" d="M61 123q0 34 6.5 113.5t6.5 125.5v654q0 28 -6.5 122t-6.5 130l5 55q9 137 20 178q21 81 90 129l12 8h91q27 0 63 -12l49 -12q15 0 45 -5t45 -5h47q42 -4 67.5 -42.5t25.5 -80.5v-709q6 -60 6 -82v-96q0 -13 -1 -37t-1 -35q0 -74 7 -210.5t7 -207.5v-79l-72 -7l-8 17 q0 9 6 51v35q-12 152 -12 452q0 131 2 154v4l-137 23q-133 20 -195 22q-78 0 -78 -16v-12q0 -13 -4 -95v-168q4 -28 4 -51v-57q0 -55 -6 -161.5t-6 -156.5v-41q-72 0 -72 105zM135 1260q0 -64 5 -186.5t5 -186.5v-29q128 0 158 -6l160 -25q30 -6 86 -6q-2 27 -2 135 q0 55 4 190t4 218v16q0 138 -20 140q-108 6 -312 47q-38 -4 -58 -39.5t-20 -89.5zM221 2062q0 19 6 25t27 6q7 0 15 -4.5t17.5 -15t17.5 -20.5t20.5 -28t20 -30.5t22 -35t22.5 -34.5l80 -123h-2q10 -20 10 -26q0 -16 -13 -27.5t-26 -11.5q-6 0 -12.5 4.5t-14.5 14t-15 18.5 t-16.5 24t-15.5 24.5t-16 26t-14 23.5l-37 61h2l-33 35q0 12 -22.5 44t-22.5 50z" />
<glyph unicode="&#xc1;" horiz-adv-x="700" d="M61 123q0 34 6.5 113.5t6.5 125.5v654q0 28 -6.5 122t-6.5 130l5 55q9 137 20 178q21 81 90 129l12 8h91q27 0 63 -12l49 -12q15 0 45 -5t45 -5h47q42 -4 67.5 -42.5t25.5 -80.5v-709q6 -60 6 -82v-96q0 -13 -1 -37t-1 -35q0 -74 7 -210.5t7 -207.5v-79l-72 -7l-8 17 q0 9 6 51v35q-12 152 -12 452q0 131 2 154v4l-137 23q-133 20 -195 22q-78 0 -78 -16v-12q0 -13 -4 -95v-168q4 -28 4 -51v-57q0 -55 -6 -161.5t-6 -156.5v-41q-72 0 -72 105zM135 1260q0 -64 5 -186.5t5 -186.5v-29q128 0 158 -6l160 -25q30 -6 86 -6q-2 27 -2 135 q0 55 4 190t4 218v16q0 138 -20 140q-108 6 -312 47q-38 -4 -58 -39.5t-20 -89.5zM221 1776q0 21 43 75h-2l47 74q94 168 133 168q23 0 29 -6t6 -25q0 -12 -22.5 -46t-22.5 -48l-33 -35h2l-36 -61q-67 -109 -90 -128q-9 -7 -15 -7q-13 0 -26 11.5t-13 27.5z" />
<glyph unicode="&#xc2;" horiz-adv-x="700" d="M61 123q0 34 6.5 113.5t6.5 125.5v654q0 28 -6.5 122t-6.5 130l5 55q9 137 20 178q21 81 90 129l12 8h91q27 0 63 -12l49 -12q15 0 45 -5t45 -5h47q42 -4 67.5 -42.5t25.5 -80.5v-709q6 -60 6 -82v-96q0 -13 -1 -37t-1 -35q0 -74 7 -210.5t7 -207.5v-79l-72 -7l-8 17 q0 9 6 51v35q-12 152 -12 452q0 131 2 154v4l-137 23q-133 20 -195 22q-78 0 -78 -16v-12q0 -13 -4 -95v-168q4 -28 4 -51v-57q0 -55 -6 -161.5t-6 -156.5v-41q-72 0 -72 105zM117 1757q0 31 33 90l45 76q13 22 46.5 88.5t58 107t38.5 44.5q36 0 90 -131q0 -25 11.5 -51.5 t23.5 -43t36 -44.5t31 -38l27 -36q3 -4 12.5 -18t14.5 -19q0 -37 -35 -37q-17 0 -34 11t-17 22q0 8 -34.5 52.5t-35.5 47.5q-72 136 -72 160l-12 14l-20 -35l2 2l-25 -55l-65 -100l-56 -107q-4 -28 -37 -28q-26 0 -26 28zM135 1260q0 -64 5 -186.5t5 -186.5v-29 q128 0 158 -6l160 -25q30 -6 86 -6q-2 27 -2 135q0 55 4 190t4 218v16q0 138 -20 140q-108 6 -312 47q-38 -4 -58 -39.5t-20 -89.5z" />
<glyph unicode="&#xc3;" horiz-adv-x="700" d="M61 123q0 34 6.5 113.5t6.5 125.5v654q0 28 -6.5 122t-6.5 130l5 55q9 137 20 178q21 81 90 129l12 8h91q27 0 63 -12l49 -12q15 0 45 -5t45 -5h47q42 -4 67.5 -42.5t25.5 -80.5v-709q6 -60 6 -82v-96q0 -13 -1 -37t-1 -35q0 -74 7 -210.5t7 -207.5v-79l-72 -7l-8 17 q0 9 6 51v35q-12 152 -12 452q0 131 2 154v4l-137 23q-133 20 -195 22q-78 0 -78 -16v-12q0 -13 -4 -95v-168q4 -28 4 -51v-57q0 -55 -6 -161.5t-6 -156.5v-41q-72 0 -72 105zM102 1825v10q0 3 2.5 19.5t4 23.5t6 18.5t10.5 18.5l39 43q25 29 80 29h20l35 -17q36 -22 51 -69 l10 -33q2 -6 5 -20.5t5 -19.5t7.5 -14.5t12.5 -13t19.5 -7t30.5 -3.5q34 0 50.5 11.5t27.5 39.5l6 25q0 4 6.5 19.5t6.5 25.5q0 1 -4.5 16t-4.5 25q0 13 9.5 21.5t23.5 8.5q20 0 28.5 -22t8.5 -49v-33q-19 -82 -53.5 -118t-98.5 -36q-47 0 -78 20.5t-44.5 49t-23 57.5 t-25 49.5t-39.5 20.5q-37 0 -54.5 -34t-17.5 -72v-23q17 -6 29 -33l-15 -8q-8 -17 -22 -22h-11q-24 0 -33.5 34t-9.5 62zM135 1260q0 -64 5 -186.5t5 -186.5v-29q128 0 158 -6l160 -25q30 -6 86 -6q-2 27 -2 135q0 55 4 190t4 218v16q0 138 -20 140q-108 6 -312 47 q-38 -4 -58 -39.5t-20 -89.5z" />
<glyph unicode="&#xc4;" horiz-adv-x="700" d="M61 123q0 34 6.5 113.5t6.5 125.5v654q0 28 -6.5 122t-6.5 130l5 55q9 137 20 178q21 81 90 129l12 8h91q27 0 63 -12l49 -12q15 0 45 -5t45 -5h47q42 -4 67.5 -42.5t25.5 -80.5v-709q6 -60 6 -82v-96q0 -13 -1 -37t-1 -35q0 -74 7 -210.5t7 -207.5v-79l-72 -7l-8 17 q0 9 6 51v35q-12 152 -12 452q0 131 2 154v4l-137 23q-133 20 -195 22q-78 0 -78 -16v-12q0 -13 -4 -95v-168q4 -28 4 -51v-57q0 -55 -6 -161.5t-6 -156.5v-41q-72 0 -72 105zM135 1260q0 -64 5 -186.5t5 -186.5v-29q128 0 158 -6l160 -25q30 -6 86 -6q-2 27 -2 135 q0 55 4 190t4 218v16q0 138 -20 140q-108 6 -312 47q-38 -4 -58 -39.5t-20 -89.5zM152 1847q0 73 73 95q28 0 49 -24.5t21 -47.5q0 -44 -72 -94q-31 0 -51 21t-20 50zM408 1847q0 73 71 95q28 0 49 -24.5t21 -47.5q0 -44 -72 -94q-30 0 -49.5 21t-19.5 50z" />
<glyph unicode="&#xc5;" horiz-adv-x="700" d="M61 123q0 34 6.5 113.5t6.5 125.5v654q0 28 -6.5 122t-6.5 130l5 55q9 137 20 178q21 81 90 129l12 8h91q27 0 63 -12l49 -12q15 0 45 -5t45 -5h47q42 -4 67.5 -42.5t25.5 -80.5v-709q6 -60 6 -82v-96q0 -13 -1 -37t-1 -35q0 -74 7 -210.5t7 -207.5v-79l-72 -7l-8 17 q0 9 6 51v35q-12 152 -12 452q0 131 2 154v4l-137 23q-133 20 -195 22q-78 0 -78 -16v-12q0 -13 -4 -95v-168q4 -28 4 -51v-57q0 -55 -6 -161.5t-6 -156.5v-41q-72 0 -72 105zM104 1968q0 105 93 182.5t200 77.5q86 0 141.5 -57t55.5 -148q0 -104 -55 -192t-156 -107h-21 q-92 0 -169 63.5t-87 151.5q-2 8 -2 29zM135 1260q0 -64 5 -186.5t5 -186.5v-29q128 0 158 -6l160 -25q30 -6 86 -6q-2 27 -2 135q0 55 4 190t4 218v16q0 138 -20 140q-108 6 -312 47q-38 -4 -58 -39.5t-20 -89.5zM188 1987q0 -5 5 -35q8 -60 55 -101t110 -41h17 q55 7 98.5 58t46.5 110l-12 95q-7 7 -20.5 25t-23.5 29.5t-29.5 21.5t-43.5 10q-71 0 -137 -62t-66 -110z" />
<glyph unicode="&#xc6;" horiz-adv-x="1005" d="M61 82q0 33 23 119l45 209q1 4 10.5 70.5t20.5 99.5l6 6l8 59l90 297q4 34 12 55l25 84l6 41q1 9 2.5 24.5t3 25.5t4.5 16l23 78q6 22 22.5 118.5t39 167t55.5 86.5q12 -6 41 -6l194 -18q43 0 102.5 -6t73.5 -6h21q26 -6 26 -54l-18 -22h-33q-25 0 -120 9t-97 9h-6 q0 -3 -1 -9t-1 -9q0 -5 4 -17l-8 -172q-1 -29 -4.5 -81t-5.5 -95t-2 -82q0 -13 1 -71t1 -84v-66q0 -4 -1 -11.5t-1 -10.5v-9h51l6 -8q14 0 37.5 -3t40.5 -6l16 -3h39q25 0 41 -4h16q42 0 54.5 -8t19.5 -29q0 -37 -37 -45q-25 0 -35 4l-65 6q-28 0 -89 7t-87 7q0 -1 -1 -4 t-1 -4v-131q0 -25 -2 -82t-2 -84l6 -108q9 -170 31.5 -215t109.5 -45h35q2 0 8.5 1t9.5 1t10 -1t9 -1l14 6q24 8 31 8q37 0 37 -53q-9 -39 -146 -39l-88 6q-2 0 -6 1t-6 1l-8 2q-32 16 -59 48t-31 73l-19 180q-2 10 -2 27v125q0 4 1 13.5t1 14.5v47q0 6 -1 26.5t-1 31.5v65 q0 5 2 23t2 22v21q0 5 -1 15t-1 12v8h-61q-140 0 -228 -4q-28 -68 -63 -258l-6 -33q-9 -19 -14 -70t-7 -61l-14 -60q-6 -23 -20.5 -69t-22.5 -82.5t-8 -69.5l-19 -4q-19 0 -29 10.5t-10 26.5zM297 825q23 0 68.5 -1t66.5 -1h15t21.5 0.5t24.5 1t25 1t21 1t15 0.5h5 q0 64 -2 78v23q2 14 2 41v205q0 48 8 155.5t8 163.5v16q0 3 -1 14t-1 21v6q-41 9 -84 9h-20q-16 -38 -24 -75t-21 -115t-29 -155l-33 -157q-38 -152 -65 -232z" />
<glyph unicode="&#xc7;" d="M61 322q0 36 3.5 138t3.5 169v24q0 46 -5 76v653q0 32 12.5 73t22 62t31.5 66q18 35 48 45t106 10l30 -4q44 0 68.5 -18t24.5 -66h-52q-2 2 -18 7.5t-19 5.5h-94q-27 -1 -46 -28t-28 -69.5t-12.5 -82t-3.5 -80.5q0 -119 3 -354.5t3 -350.5q0 -37 -4 -110.5t-4 -110.5v-17 q0 -219 111 -270h8q26 0 49 -6t31 -6q16 0 51.5 3t60.5 3q54 0 64 -29q0 -6 -1.5 -15.5t-8.5 -23.5t-17 -18h-80q-67 0 -149 4q0 -21 2 -25q-8 -29 -8 -69v-29q11 0 31.5 1t27.5 1q59 -18 90 -45l49 -45l31 -39q-2 -2 -3 -3.5t-1.5 -2t-1.5 -0.5q16 -17 24.5 -40.5t9.5 -39 t1 -43.5q0 -116 -58.5 -184t-162.5 -68h-23q-18 0 -57 27t-39 47t10.5 26.5t30.5 6.5h14q39 -35 66 -35q68 0 110.5 48.5t42.5 121.5q0 61 -41.5 125.5t-97.5 64.5h-96q-13 9 -19 18.5t-7 16.5t-1 21v39q0 81 8 118q-73 21 -97 87t-24 219z" />
<glyph unicode="&#xc8;" horiz-adv-x="641" d="M61 651v123q0 52 3.5 157.5t3.5 162.5q0 3 -3.5 44.5t-3.5 49.5v237l13 66q22 71 92.5 106t152.5 35h15q100 0 190 -20q-33 -56 -88 -56h-170l-69 -18l2 2q-36 -28 -52 -80.5t-16 -105.5q0 -15 3 -56t3 -45v-579q8 8 23 8h63q35 0 101.5 -2t101.5 -2l43 -2q9 -4 19 -16 t10 -25q0 -20 -16.5 -32.5t-32.5 -12.5h-15q-123 10 -221 10h-55q-15 6 -21 12v-24q6 -54 6 -70v-276q0 -152 45 -152q136 -22 338 -22h39q15 -22 15 -45q0 -37 -41 -37h-13q-31 6 -102 6h-62q-62 0 -94.5 1t-73 8.5t-59.5 21.5q-24 17 -43.5 64t-19.5 75q0 1 1 4.5t1 5.5 q-6 60 -6 82v299q0 3 -3.5 47t-3.5 51zM193 2062q0 19 5.5 25t26.5 6q7 0 15 -4.5t17.5 -15t17.5 -20.5t20.5 -28t20 -30.5t22 -35t22.5 -34.5l80 -123h-2q11 -22 11 -26q0 -16 -13 -27.5t-26 -11.5q-6 0 -12.5 4t-15 14t-15 18.5t-17 24.5t-15.5 24t-16 27t-14 23l-37 61h2 l-32 35q0 12 -22.5 44t-22.5 50z" />
<glyph unicode="&#xc9;" horiz-adv-x="641" d="M61 651v123q0 52 3.5 157.5t3.5 162.5q0 3 -3.5 44.5t-3.5 49.5v237l13 66q22 71 92.5 106t152.5 35h15q100 0 190 -20q-33 -56 -88 -56h-170l-69 -18l2 2q-36 -28 -52 -80.5t-16 -105.5q0 -15 3 -56t3 -45v-579q8 8 23 8h63q35 0 101.5 -2t101.5 -2l43 -2q9 -4 19 -16 t10 -25q0 -20 -16.5 -32.5t-32.5 -12.5h-15q-123 10 -221 10h-55q-15 6 -21 12v-24q6 -54 6 -70v-276q0 -152 45 -152q136 -22 338 -22h39q15 -22 15 -45q0 -37 -41 -37h-13q-31 6 -102 6h-62q-62 0 -94.5 1t-73 8.5t-59.5 21.5q-24 17 -43.5 64t-19.5 75q0 1 1 4.5t1 5.5 q-6 60 -6 82v299q0 3 -3.5 47t-3.5 51zM193 1776q0 21 43 75h-3l48 74q94 168 133 168q23 0 29 -6t6 -25q0 -12 -23 -46t-23 -48l-32 -35h2l-37 -61q-67 -109 -90 -128q-9 -7 -15 -7q-13 0 -25.5 11.5t-12.5 27.5z" />
<glyph unicode="&#xca;" horiz-adv-x="641" d="M61 651v123q0 52 3.5 157.5t3.5 162.5q0 3 -3.5 44.5t-3.5 49.5v237l13 66q22 71 92.5 106t152.5 35h15q100 0 190 -20q-33 -56 -88 -56h-170l-69 -18l2 2q-36 -28 -52 -80.5t-16 -105.5q0 -15 3 -56t3 -45v-579q8 8 23 8h63q35 0 101.5 -2t101.5 -2l43 -2q9 -4 19 -16 t10 -25q0 -20 -16.5 -32.5t-32.5 -12.5h-15q-123 10 -221 10h-55q-15 6 -21 12v-24q6 -54 6 -70v-276q0 -152 45 -152q136 -22 338 -22h39q15 -22 15 -45q0 -37 -41 -37h-13q-31 6 -102 6h-62q-62 0 -94.5 1t-73 8.5t-59.5 21.5q-24 17 -43.5 64t-19.5 75q0 1 1 4.5t1 5.5 q-6 60 -6 82v299q0 3 -3.5 47t-3.5 51zM86 1757q0 31 33 90l45 76q13 22 46.5 88.5t58 107t38.5 44.5q36 0 90 -131q0 -25 11.5 -51.5t24 -43t36 -44.5t31.5 -38l26 -36q3 -4 12.5 -18t14.5 -19q0 -37 -35 -37q-17 0 -34 11t-17 22q0 8 -34.5 52.5t-35.5 47.5 q-71 134 -71 160l-13 14l-20 -35l2 2l-25 -55l-65 -100l-55 -107q-4 -28 -37 -28q-27 0 -27 28z" />
<glyph unicode="&#xcb;" horiz-adv-x="641" d="M61 651v123q0 52 3.5 157.5t3.5 162.5q0 3 -3.5 44.5t-3.5 49.5v237l13 66q22 71 92.5 106t152.5 35h15q100 0 190 -20q-33 -56 -88 -56h-170l-69 -18l2 2q-36 -28 -52 -80.5t-16 -105.5q0 -15 3 -56t3 -45v-579q8 8 23 8h63q35 0 101.5 -2t101.5 -2l43 -2q9 -4 19 -16 t10 -25q0 -20 -16.5 -32.5t-32.5 -12.5h-15q-123 10 -221 10h-55q-15 6 -21 12v-24q6 -54 6 -70v-276q0 -152 45 -152q136 -22 338 -22h39q15 -22 15 -45q0 -37 -41 -37h-13q-31 6 -102 6h-62q-62 0 -94.5 1t-73 8.5t-59.5 21.5q-24 17 -43.5 64t-19.5 75q0 1 1 4.5t1 5.5 q-6 60 -6 82v299q0 3 -3.5 47t-3.5 51zM121 1847q0 73 74 95q28 0 48.5 -24.5t20.5 -47.5q0 -45 -71 -94q-31 0 -51.5 21t-20.5 50zM377 1847q0 73 72 95q28 0 48.5 -24.5t20.5 -47.5q0 -44 -72 -94q-30 0 -49.5 21t-19.5 50z" />
<glyph unicode="&#xcc;" horiz-adv-x="804" d="M61 41q0 22 10.5 33t21.5 12.5t34 1.5h20q12 0 40 -3t42 -3h17q99 6 137 6v21q0 63 6 112v533q4 24 4 69v197q0 168 10 438q0 9 6.5 46.5t6.5 47.5h-113q-28 0 -35 7h-39q-168 0 -168 36q0 10 1 15.5t7 12.5t19 13h33q37 0 112.5 -8t112.5 -8q15 0 53 3t62 3q39 0 114 -3 t113 -3h29q13 0 19 -4t6.5 -8.5t0.5 -16.5q0 -45 -59 -45h-25q-27 0 -67 3t-57 3h-13q-30 0 -40.5 -24t-10.5 -68q0 -11 1 -36t1 -38v-135q0 -5 -1 -14t-1 -12v-105l-6 -35v-221q0 -60 -6 -129v-28q0 -57 3 -171t3 -171q0 -41 -3 -121t-3 -115v-49q25 -4 133 -4h67 q3 0 10.5 1t10.5 1q18 -18 18 -31q0 -3 -20 -53q-74 0 -92 6h-11q-3 0 -10 -1t-10 -1h-2q-4 1 -40.5 2.5t-81 4t-64.5 5.5h-5q-5 0 -57 -3t-57 -3h-8q-24 0 -69 3t-67 3h-24q-19 8 -19 31zM274 2062q0 19 6 25t27 6q7 0 15 -4.5t17.5 -15t17.5 -20.5t20.5 -28t20 -30.5 t22 -35t22.5 -34.5l80 -123h-2q10 -20 10 -26q0 -16 -12.5 -27.5t-25.5 -11.5q-6 0 -12.5 4t-15 14t-15 18.5t-17 24.5t-15.5 24t-16 27t-14 23l-37 61h2l-33 35q0 12 -22.5 44t-22.5 50z" />
<glyph unicode="&#xcd;" horiz-adv-x="804" d="M61 41q0 22 10.5 33t21.5 12.5t34 1.5h20q12 0 40 -3t42 -3h17q99 6 137 6v21q0 63 6 112v533q4 24 4 69v197q0 168 10 438q0 9 6.5 46.5t6.5 47.5h-113q-28 0 -35 7h-39q-168 0 -168 36q0 10 1 15.5t7 12.5t19 13h33q37 0 112.5 -8t112.5 -8q15 0 53 3t62 3q39 0 114 -3 t113 -3h29q13 0 19 -4t6.5 -8.5t0.5 -16.5q0 -45 -59 -45h-25q-27 0 -67 3t-57 3h-13q-30 0 -40.5 -24t-10.5 -68q0 -11 1 -36t1 -38v-135q0 -5 -1 -14t-1 -12v-105l-6 -35v-221q0 -60 -6 -129v-28q0 -57 3 -171t3 -171q0 -41 -3 -121t-3 -115v-49q25 -4 133 -4h67 q3 0 10.5 1t10.5 1q18 -18 18 -31q0 -3 -20 -53q-74 0 -92 6h-11q-3 0 -10 -1t-10 -1h-2q-4 1 -40.5 2.5t-81 4t-64.5 5.5h-5q-5 0 -57 -3t-57 -3h-8q-24 0 -69 3t-67 3h-24q-19 8 -19 31zM274 1776q0 21 43 75h-2l47 74q94 168 134 168q22 0 28 -5.5t6 -25.5 q0 -12 -22.5 -46t-22.5 -48l-32 -35h2l-37 -61q-67 -109 -90 -128q-9 -7 -15 -7q-13 0 -26 11.5t-13 27.5z" />
<glyph unicode="&#xce;" horiz-adv-x="804" d="M61 41q0 22 10.5 33t21.5 12.5t34 1.5h20q12 0 40 -3t42 -3h17q99 6 137 6v21q0 63 6 112v533q4 24 4 69v197q0 168 10 438q0 9 6.5 46.5t6.5 47.5h-113q-28 0 -35 7h-39q-168 0 -168 36q0 10 1 15.5t7 12.5t19 13h33q37 0 112.5 -8t112.5 -8q15 0 53 3t62 3q39 0 114 -3 t113 -3h29q13 0 19 -4t6.5 -8.5t0.5 -16.5q0 -45 -59 -45h-25q-27 0 -67 3t-57 3h-13q-30 0 -40.5 -24t-10.5 -68q0 -11 1 -36t1 -38v-135q0 -5 -1 -14t-1 -12v-105l-6 -35v-221q0 -60 -6 -129v-28q0 -57 3 -171t3 -171q0 -41 -3 -121t-3 -115v-49q25 -4 133 -4h67 q3 0 10.5 1t10.5 1q18 -18 18 -31q0 -3 -20 -53q-74 0 -92 6h-11q-3 0 -10 -1t-10 -1h-2q-4 1 -40.5 2.5t-81 4t-64.5 5.5h-5q-5 0 -57 -3t-57 -3h-8q-24 0 -69 3t-67 3h-24q-19 8 -19 31zM168 1757q0 31 33 90l45 76q13 22 46.5 88.5t58 107t38.5 44.5q36 0 90 -131 q0 -25 11.5 -51.5t24 -43t36 -44.5t31.5 -38l26 -36q3 -4 12.5 -18t14.5 -19q0 -37 -35 -37q-17 0 -34 11t-17 22q0 8 -34.5 52.5t-35.5 47.5q-71 134 -71 160l-13 14l-20 -35l2 2l-25 -55l-65 -100l-56 -107q-3 -28 -36 -28q-27 0 -27 28z" />
<glyph unicode="&#xcf;" horiz-adv-x="804" d="M61 41q0 22 10.5 33t21.5 12.5t34 1.5h20q12 0 40 -3t42 -3h17q99 6 137 6v21q0 63 6 112v533q4 24 4 69v197q0 168 10 438q0 9 6.5 46.5t6.5 47.5h-113q-28 0 -35 7h-39q-168 0 -168 36q0 10 1 15.5t7 12.5t19 13h33q37 0 112.5 -8t112.5 -8q15 0 53 3t62 3q39 0 114 -3 t113 -3h29q13 0 19 -4t6.5 -8.5t0.5 -16.5q0 -45 -59 -45h-25q-27 0 -67 3t-57 3h-13q-30 0 -40.5 -24t-10.5 -68q0 -11 1 -36t1 -38v-135q0 -5 -1 -14t-1 -12v-105l-6 -35v-221q0 -60 -6 -129v-28q0 -57 3 -171t3 -171q0 -41 -3 -121t-3 -115v-49q25 -4 133 -4h67 q3 0 10.5 1t10.5 1q18 -18 18 -31q0 -3 -20 -53q-74 0 -92 6h-11q-3 0 -10 -1t-10 -1h-8q-7 0 -47 2t-77 4.5t-56 5.5h-5q-5 0 -57 -3t-57 -3h-8q-24 0 -69 3t-67 3h-24q-19 8 -19 31zM203 1847q0 73 73 95q28 0 49 -24.5t21 -47.5q0 -44 -72 -94q-31 0 -51 21t-20 50z M459 1847q0 73 71 95q28 0 49 -24.5t21 -47.5q0 -44 -72 -94q-30 0 -49.5 21t-19.5 50z" />
<glyph unicode="&#xd0;" horiz-adv-x="765" d="M61 772q13 35 33 35l78 4q-4 50 -9 239.5t-5 297.5l-2 63q0 12 2 36t2 38q0 19 -3 55.5t-3 58.5q0 37 53 37l47 -22q89 -39 161 -99.5t120 -132.5t82.5 -150.5t53 -164t26.5 -161t8 -152.5q0 -28 -5.5 -87t-7.5 -102l-8 -67q-23 -72 -39 -144q-38 -85 -118 -173 t-150 -122l-51 -24q-5 -4 -12.5 -6.5t-11.5 -2.5l-5 -1l-41 -19q-11 -8 -20 -8q-19 0 -38.5 17.5t-19.5 35.5l-4 107q-4 80 -4 256l-2 20q0 25 -4 41l-8 260h-64q-25 21 -31 37zM219 1391q6 -141 6 -275q0 -48 -2 -147t-2 -158v-4h74q19 0 29.5 -1.5t22 -11.5t11.5 -30 t-10.5 -25.5t-32.5 -5.5q-16 0 -35.5 2t-31.5 2h-25v-80q0 -51 2 -67l6 -125q14 -306 15 -338q0 -8 1 -25.5t1 -25.5q111 38 189 109t120 165.5t61 187t25 205.5q0 128 -23.5 247.5t-72 229.5t-131.5 196t-193 132q0 -26 -2 -78t-2 -79z" />
<glyph unicode="&#xd1;" horiz-adv-x="808" d="M61 821q0 30 3.5 95.5t3.5 97.5v14q0 4 -1 13t-1 14q0 33 6 101t6 101v21q0 151 -6 205q0 50 12 102.5t33 52.5q9 0 23 -14t16 -20l22 -56q4 -44 37 -135.5t39 -112.5l74 -190q4 -10 10.5 -30.5t12 -34.5t11.5 -21l15 -55q0 -19 18.5 -46t18.5 -42q0 -21 35 -100.5 t40 -94.5l17 -57h-2q3 -3 10 -17l57 -161q0 -24 21 -58v2q12 -20 14 -35l4 -14v2q4 -12 24.5 -40.5t33.5 -74.5l-6 84q-1 9 -4 40.5t-3 48.5q0 21 4.5 72.5t4.5 82.5q0 20 -4.5 105t-4.5 96l-12 391l8 68l21 358q0 39 45 39q31 0 31 -68q0 -98 -16.5 -231t-16.5 -162v-123 q0 -5 -2 -27t-2 -26q0 -24 6 -81.5t6 -84.5q0 -24 -2 -63.5t-2 -61.5q0 -10 5 -49t5 -61q0 -16 -3 -48t-3 -47q0 -7 4 -39l10 -151q0 -197 6 -258q0 -7 -9 -21.5t-21 -17.5q-29 12 -37 23.5t-8 27.5l-60 133q-8 18 -50 107.5t-60 134.5l2 -2q-17 27 -21 51l-55 166 q0 35 -23 68l-16 32l-37 117q-16 18 -35 68.5t-44 130t-44 127.5q-40 90 -80 213q-4 0 -4 4q0 -24 2 -70t2 -61q0 -26 -10 -210t-10 -270q0 -291 22 -731q0 -14 -16 -30h-25q-19 0 -27.5 35t-8.5 69v29q0 1 -1 4.5t-1 5.5v8q0 130 4 162q0 32 -4.5 104.5t-4.5 83.5v9 q0 4 1.5 15.5t1.5 16.5v35q0 40 -2.5 111t-2.5 106zM156 1825v10q1 5 2.5 19.5t3 23t6 19.5t10.5 18l39 43q25 29 80 29h20l35 -17q36 -22 51 -69l11 -33q2 -6 5 -20.5t5 -19.5t7.5 -14.5t12.5 -13t19.5 -7t30.5 -3.5q34 0 50 11.5t27 39.5l7 25q0 4 6 19.5t6 25.5 q0 1 -4 16t-4 25q0 13 9 21.5t23 8.5q20 0 28.5 -22t8.5 -49v-33q-19 -82 -53 -118t-98 -36q-47 0 -78 20.5t-44.5 49t-23.5 57.5t-25.5 49.5t-39.5 20.5q-37 0 -54.5 -34t-17.5 -72v-23q17 -6 29 -33l-15 -8q-8 -17 -22 -22h-10q-24 0 -33.5 34t-9.5 62z" />
<glyph unicode="&#xd2;" horiz-adv-x="716" d="M61 975v55q0 7 5 27v12q0 37 11 125t11 109q10 54 22.5 98t36.5 90t55.5 77t80 50.5t108.5 19.5q50 0 94.5 -24t74.5 -60t52.5 -79t32.5 -81t10 -65v-49q0 -1 -1 -8.5t-1 -14.5v-450q0 -1 1 -8t1 -11v-32q0 -51 -5 -85.5t-5 -54.5l-29 -288l-12 -60q-7 -46 -14.5 -78.5 t-24.5 -71.5t-40 -63t-61.5 -40.5t-88.5 -16.5q-42 0 -105 28.5t-117.5 82.5t-58.5 112q-24 172 -24 445v26q-9 203 -9 283zM135 942q0 -3 2 -44t2 -44l6 -330q0 -43 0.5 -69.5t2.5 -68.5t6.5 -69t13 -63t20.5 -59t30.5 -47.5t42 -39t55.5 -23.5t71 -9q89 0 119 63l20 47v13 q0 37 21 135v-2q41 308 41 387v633q0 59 -67 140t-130 81q-26 0 -68.5 -20t-64.5 -40l-41 -36q-8 -8 -16 -36t-8 -34q-21 -61 -34 -144t-16.5 -135.5t-7.5 -144.5v-41zM229 2062q0 19 6 25t27 6q7 0 15 -4.5t17.5 -15t17.5 -20.5t20.5 -28t20 -30.5t22 -35t22.5 -34.5 l80 -123h-2q10 -20 10 -26q0 -16 -13 -27.5t-26 -11.5q-6 0 -12.5 4.5t-14.5 14t-15 18.5t-16.5 24t-15.5 24.5t-16 26t-14 23.5l-37 61h2l-33 35q0 12 -22.5 44t-22.5 50z" />
<glyph unicode="&#xd3;" horiz-adv-x="716" d="M61 975v55q0 7 5 27v12q0 37 11 125t11 109q10 54 22.5 98t36.5 90t55.5 77t80 50.5t108.5 19.5q50 0 94.5 -24t74.5 -60t52.5 -79t32.5 -81t10 -65v-49q0 -1 -1 -8.5t-1 -14.5v-450q0 -1 1 -8t1 -11v-32q0 -51 -5 -85.5t-5 -54.5l-29 -288l-12 -60q-7 -46 -14.5 -78.5 t-24.5 -71.5t-40 -63t-61.5 -40.5t-88.5 -16.5q-42 0 -105 28.5t-117.5 82.5t-58.5 112q-24 172 -24 445v26q-9 203 -9 283zM135 942q0 -3 2 -44t2 -44l6 -330q0 -43 0.5 -69.5t2.5 -68.5t6.5 -69t13 -63t20.5 -59t30.5 -47.5t42 -39t55.5 -23.5t71 -9q89 0 119 63l20 47v13 q0 37 21 135v-2q41 308 41 387v633q0 59 -67 140t-130 81q-26 0 -68.5 -20t-64.5 -40l-41 -36q-8 -8 -16 -36t-8 -34q-21 -61 -34 -144t-16.5 -135.5t-7.5 -144.5v-41zM229 1776q0 21 43 75h-2l47 74q94 168 134 168q23 0 28.5 -5.5t5.5 -25.5q0 -12 -22.5 -46t-22.5 -48 l-32 -35h2l-37 -61q-67 -109 -90 -128q-9 -7 -15 -7q-13 0 -26 11.5t-13 27.5z" />
<glyph unicode="&#xd4;" horiz-adv-x="716" d="M61 975v55q0 7 5 27v12q0 37 11 125t11 109q10 54 22.5 98t36.5 90t55.5 77t80 50.5t108.5 19.5q50 0 94.5 -24t74.5 -60t52.5 -79t32.5 -81t10 -65v-49q0 -1 -1 -8.5t-1 -14.5v-450q0 -1 1 -8t1 -11v-32q0 -51 -5 -85.5t-5 -54.5l-29 -288l-12 -60q-7 -46 -14.5 -78.5 t-24.5 -71.5t-40 -63t-61.5 -40.5t-88.5 -16.5q-42 0 -105 28.5t-117.5 82.5t-58.5 112q-24 172 -24 445v26q-9 203 -9 283zM125 1757q0 31 33 90l45 76q13 22 46.5 88.5t58 107t38.5 44.5q36 0 90 -131q0 -25 11.5 -51.5t24 -43t36 -44.5t31.5 -38l26 -36q3 -4 12.5 -18 t14.5 -19q0 -37 -35 -37q-17 0 -34 11t-17 22q0 8 -34.5 52.5t-35.5 47.5q-71 134 -71 160l-13 14l-20 -35l2 2l-25 -55l-65 -100l-56 -107q-4 -28 -36 -28q-27 0 -27 28zM135 942q0 -3 2 -44t2 -44l6 -330q0 -43 0.5 -69.5t2.5 -68.5t6.5 -69t13 -63t20.5 -59t30.5 -47.5 t42 -39t55.5 -23.5t71 -9q89 0 119 63l20 47v13q0 37 21 135v-2q41 308 41 387v633q0 59 -67 140t-130 81q-26 0 -68.5 -20t-64.5 -40l-41 -36q-8 -8 -16 -36t-8 -34q-21 -61 -34 -144t-16.5 -135.5t-7.5 -144.5v-41z" />
<glyph unicode="&#xd5;" horiz-adv-x="716" d="M61 975v55q0 7 5 27v12q0 37 11 125t11 109q10 54 22.5 98t36.5 90t55.5 77t80 50.5t108.5 19.5q50 0 94.5 -24t74.5 -60t52.5 -79t32.5 -81t10 -65v-49q0 -1 -1 -8.5t-1 -14.5v-450q0 -1 1 -8t1 -11v-32q0 -51 -5 -85.5t-5 -54.5l-29 -288l-12 -60q-7 -46 -14.5 -78.5 t-24.5 -71.5t-40 -63t-61.5 -40.5t-88.5 -16.5q-42 0 -105 28.5t-117.5 82.5t-58.5 112q-24 172 -24 445v26q-9 203 -9 283zM111 1825v10q1 5 2.5 19.5t3 23t6 19.5t10.5 18l39 43q25 29 80 29h20l35 -17q36 -22 51 -69l11 -33q2 -6 5 -20.5t5 -19.5t7.5 -14.5t12.5 -13 t19.5 -7t30.5 -3.5q34 0 50 11.5t27 39.5l6 25q0 4 6.5 19.5t6.5 25.5q0 1 -4 16t-4 25q0 13 9 21.5t23 8.5q20 0 28.5 -22t8.5 -49v-33q-19 -82 -53 -118t-98 -36q-47 0 -78 20.5t-44.5 49t-23.5 57.5t-25.5 49.5t-39.5 20.5q-37 0 -54.5 -34t-17.5 -72v-23q17 -6 29 -33 l-15 -8q-8 -17 -22 -22h-10q-24 0 -33.5 34t-9.5 62zM135 942q0 -3 2 -44t2 -44l6 -330q0 -43 0.5 -69.5t2.5 -68.5t6.5 -69t13 -63t20.5 -59t30.5 -47.5t42 -39t55.5 -23.5t71 -9q89 0 119 63l20 47v13q0 37 21 135v-2q41 308 41 387v633q0 59 -67 140t-130 81 q-26 0 -68.5 -20t-64.5 -40l-41 -36q-8 -8 -16 -36t-8 -34q-21 -61 -34 -144t-16.5 -135.5t-7.5 -144.5v-41z" />
<glyph unicode="&#xd6;" horiz-adv-x="716" d="M61 975v55q0 7 5 27v12q0 37 11 125t11 109q10 54 22.5 98t36.5 90t55.5 77t80 50.5t108.5 19.5q50 0 94.5 -24t74.5 -60t52.5 -79t32.5 -81t10 -65v-49q0 -1 -1 -8.5t-1 -14.5v-450q0 -1 1 -8t1 -11v-32q0 -51 -5 -85.5t-5 -54.5l-29 -288l-12 -60q-7 -46 -14.5 -78.5 t-24.5 -71.5t-40 -63t-61.5 -40.5t-88.5 -16.5q-42 0 -105 28.5t-117.5 82.5t-58.5 112q-24 172 -24 445v26q-9 203 -9 283zM135 942q0 -3 2 -44t2 -44l6 -330q0 -43 0.5 -69.5t2.5 -68.5t6.5 -69t13 -63t20.5 -59t30.5 -47.5t42 -39t55.5 -23.5t71 -9q89 0 119 63l20 47v13 q0 37 21 135v-2q41 308 41 387v633q0 59 -67 140t-130 81q-26 0 -68.5 -20t-64.5 -40l-41 -36q-8 -8 -16 -36t-8 -34q-21 -61 -34 -144t-16.5 -135.5t-7.5 -144.5v-41zM160 1847q0 73 73 95q28 0 49 -24.5t21 -47.5q0 -44 -72 -94q-31 0 -51 21t-20 50zM416 1847q0 73 71 95 q28 0 49 -24.5t21 -47.5q0 -44 -72 -94q-30 0 -49.5 21t-19.5 50z" />
<glyph unicode="&#xd8;" horiz-adv-x="780" d="M61 788v19q0 321 109 588l12 24q54 87 122.5 150t139.5 63l31 6q42 0 64 -14l32 -22l2 12q2 11 7.5 26t14.5 31t27.5 26.5t43.5 10.5q0 -47 -31 -129l-12 -33l6 -16q13 -31 14 -31l27 -61q6 -17 10 -70l8 -49q0 -13 10.5 -93.5t10.5 -107.5v-31q0 -11 -2 -45t-2 -51 q4 -15 9 -85t5 -130v-14q0 -311 -53 -498q-10 -30 -24 -59.5t-38 -67.5t-51.5 -66.5t-67 -48.5t-82.5 -20q-91 0 -159 53q-11 -54 -29.5 -99.5t-42.5 -45.5q-15 0 -21 1.5t-10 9t-4 24.5l13 41l10 30q2 8 7 23.5t7.5 23.5t5 19.5t2.5 21.5q0 15 -26 41q-40 49 -60.5 128 t-23 149t-4.5 184t-7 182zM135 834q0 -176 12 -351q0 -66 1.5 -103.5t15.5 -97t41 -96.5l39 150v-2q0 2 3 8.5t3 9.5l117 518q0 10 3 22t3 15l14 78q0 26 7.5 55.5t19.5 42.5l37 138q5 17 15.5 63t21 84t22.5 66l29 73q1 2 3.5 7.5t4.5 10.5t2 9q0 6 -57 35h-9q-2 0 -6.5 1 t-7.5 1t-16 -2t-19 -2l-55 -21l2 2q-111 -84 -186 -278l-15 -37q-3 -27 -22.5 -150.5t-22.5 -191.5v-57zM264 125q0 -1 2 -3.5t4 -2.5l52 -35l-3 2q24 -12 78 -12q57 0 105 40.5t75.5 99.5t42.5 117.5t15 102.5l10 111q0 25 5 74t5 73v78q0 21 -7 71.5t-7 88.5v192 q0 196 -53 330l-78 -262q-2 -27 -21 -74l-22 -76q-6 -21 -11 -55.5t-7 -42.5l-17 -100l-4 -4l-16 -99l-90 -379q-34 -116 -58 -223v-12z" />
<glyph unicode="&#xd9;" horiz-adv-x="847" d="M61 707q0 48 4.5 145t4.5 145v250l10 82v62q0 9 -4 99t-4 146h63q0 -59 3 -162.5t3 -154.5q0 -102 -8 -312.5t-8 -320.5q0 -5 16 -168l11 -100q0 -110 25 -172.5t99 -132.5q5 -2 9 -2l98 -35h16q28 0 97 -6h10q35 15 63.5 50t49 88.5t31 90t24.5 94.5v8q0 12 4 55t4 44 l20 278q0 25 5.5 71t5.5 69v118q0 4 5 39.5t5 46.5v60q0 50 -5 155t-5 158v61q-6 6 -6 13q0 10 17 30.5t28 20.5q34 0 34 -37v-485q0 -68 -8 -204.5t-8 -201.5v-37q0 -4 1 -12t1 -12v-23l-20 -102q-2 -95 -25 -174l-22 -76q-14 -46 -23 -73.5t-29 -66.5t-42 -60.5t-57 -37.5 t-79 -16q-26 0 -48 1t-63 8t-74 19.5t-71.5 37.5t-65.5 59t-46.5 88t-22.5 121q0 63 -11.5 183.5t-11.5 187.5zM295 2062q0 19 6 25t27 6q7 0 15 -4.5t17.5 -15t17.5 -20.5t20.5 -28t20 -30.5t22 -35t22.5 -34.5l80 -123h-2q10 -20 10 -26q0 -16 -13 -27.5t-26 -11.5 q-6 0 -12.5 4.5t-14.5 14t-15 18.5t-16.5 24t-15.5 24.5t-16 26t-14 23.5l-37 61h2l-33 35q0 12 -22.5 44t-22.5 50z" />
<glyph unicode="&#xda;" horiz-adv-x="847" d="M61 707q0 48 4.5 145t4.5 145v250l10 82v62q0 9 -4 99t-4 146h63q0 -59 3 -162.5t3 -154.5q0 -102 -8 -312.5t-8 -320.5q0 -5 16 -168l11 -100q0 -110 25 -172.5t99 -132.5q5 -2 9 -2l98 -35h16q28 0 97 -6h10q35 15 63.5 50t49 88.5t31 90t24.5 94.5v8q0 12 4 55t4 44 l20 278q0 25 5.5 71t5.5 69v118q0 4 5 39.5t5 46.5v60q0 50 -5 155t-5 158v61q-6 6 -6 13q0 10 17 30.5t28 20.5q34 0 34 -37v-485q0 -68 -8 -204.5t-8 -201.5v-37q0 -4 1 -12t1 -12v-23l-20 -102q-2 -95 -25 -174l-22 -76q-14 -46 -23 -73.5t-29 -66.5t-42 -60.5t-57 -37.5 t-79 -16q-26 0 -48 1t-63 8t-74 19.5t-71.5 37.5t-65.5 59t-46.5 88t-22.5 121q0 63 -11.5 183.5t-11.5 187.5zM295 1776q0 21 43 75h-2l47 74q94 168 133 168q23 0 29 -6t6 -25q0 -12 -22.5 -46t-22.5 -48l-33 -35h2l-37 -61q-3 -4 -11 -17.5t-12 -20.5t-12 -19.5t-13 -20 t-12.5 -18t-12.5 -16.5t-11 -12t-11 -8.5t-9 -2.5q-13 0 -26 11.5t-13 27.5z" />
<glyph unicode="&#xdb;" horiz-adv-x="847" d="M61 707q0 48 4.5 145t4.5 145v250l10 82v62q0 9 -4 99t-4 146h63q0 -59 3 -162.5t3 -154.5q0 -102 -8 -312.5t-8 -320.5q0 -5 16 -168l11 -100q0 -110 25 -172.5t99 -132.5q5 -2 9 -2l98 -35h16q28 0 97 -6h10q35 15 63.5 50t49 88.5t31 90t24.5 94.5v8q0 12 4 55t4 44 l20 278q0 25 5.5 71t5.5 69v118q0 4 5 39.5t5 46.5v60q0 50 -5 155t-5 158v61q-6 6 -6 13q0 10 17 30.5t28 20.5q34 0 34 -37v-485q0 -68 -8 -204.5t-8 -201.5v-37q0 -4 1 -12t1 -12v-23l-20 -102q-2 -95 -25 -174l-22 -76q-14 -46 -23 -73.5t-29 -66.5t-42 -60.5t-57 -37.5 t-79 -16q-26 0 -48 1t-63 8t-74 19.5t-71.5 37.5t-65.5 59t-46.5 88t-22.5 121q0 63 -11.5 183.5t-11.5 187.5zM190 1757q0 31 33 90l45 76q12 21 46.5 88t59 107.5t38.5 44.5q36 0 90 -131q0 -25 11.5 -51.5t23.5 -43t36 -44.5t31 -38l27 -36q3 -4 12.5 -18.5t13.5 -18.5 q0 -37 -34 -37q-17 0 -34.5 11t-17.5 22q0 8 -34 52.5t-35 47.5q-72 136 -72 160l-12 14l-21 -35l2 2l-24 -55l-66 -100l-55 -107q-4 -28 -37 -28q-27 0 -27 28z" />
<glyph unicode="&#xdc;" horiz-adv-x="847" d="M61 707q0 48 4.5 145t4.5 145v250l10 82v62q0 9 -4 99t-4 146h63q0 -59 3 -162.5t3 -154.5q0 -102 -8 -312.5t-8 -320.5q0 -5 16 -168l11 -100q0 -110 25 -172.5t99 -132.5q5 -2 9 -2l98 -35h16q28 0 97 -6h10q35 15 63.5 50t49 88.5t31 90t24.5 94.5v8q0 12 4 55t4 44 l20 278q0 25 5.5 71t5.5 69v118q0 4 5 39.5t5 46.5v60q0 50 -5 155t-5 158v61q-6 6 -6 13q0 10 17 30.5t28 20.5q34 0 34 -37v-485q0 -68 -8 -204.5t-8 -201.5v-37q0 -4 1 -12t1 -12v-23l-20 -102q-2 -95 -25 -174l-22 -76q-14 -46 -23 -73.5t-29 -66.5t-42 -60.5t-57 -37.5 t-79 -16q-26 0 -48 1t-63 8t-74 19.5t-71.5 37.5t-65.5 59t-46.5 88t-22.5 121q0 63 -11.5 183.5t-11.5 187.5zM225 1847q0 73 74 95q28 0 49 -24.5t21 -47.5q0 -44 -72 -94q-31 0 -51.5 21t-20.5 50zM481 1847q0 73 72 95q28 0 49 -24.5t21 -47.5q0 -44 -72 -94 q-30 0 -50 21t-20 50z" />
<glyph unicode="&#xdd;" horiz-adv-x="825" d="M61 1585q0 37 31 37q19 0 46.5 -58.5t27.5 -78.5l37 -94l14 -27q0 -7 13 -28t36.5 -60t40.5 -76l37 -80l21 -43l36 -84q2 -6 8 -28.5t15.5 -38t28.5 -33.5v2q0 6 4 18q51 148 57 170l14 56q26 101 89.5 262t113.5 239q4 -4 13.5 -6.5t14.5 -10.5t5 -30l-176 -489 q-9 -23 -39 -127l-51 -158q-15 -15 -15 -223v-37q0 -7 2 -65.5t2 -75.5q0 -11 -4 -15q0 -20 4.5 -52.5t4.5 -39.5v-198q0 -5 2 -37t2 -35v-21q0 -7 -9.5 -17t-17.5 -13q-10 0 -25.5 18t-15.5 23q0 56 -4 84v39q0 13 2 49.5t2 56.5q0 43 -8 313q0 3 2 32t2 36q0 3 -2 28 t-2 29v107q-12 20 -27 55l-133 287q-15 30 -76 138t-84 167zM285 1776q0 21 43 75h-2l47 74q94 168 133 168q23 0 29 -6t6 -25q0 -12 -22.5 -46t-22.5 -48l-33 -35h2l-37 -61q-3 -4 -11 -17.5t-12 -20.5t-12 -19.5t-13 -20t-12.5 -18t-12.5 -16.5t-11 -12t-11 -8.5t-9 -2.5 q-13 0 -26 11.5t-13 27.5z" />
<glyph unicode="&#xde;" horiz-adv-x="638" d="M61 819v459q0 26 1 78t1 78v165q0 9 11 23t26 14q12 0 25.5 -10.5t13.5 -26.5v-196q72 -15 128.5 -37t98.5 -48t73 -63t51 -74.5t35.5 -92t24 -105t17.5 -123.5q11 -97 11 -162v-34q0 -63 -11 -123t-41 -123.5t-76 -110.5t-122.5 -77.5t-173.5 -30.5v-170q-8 -29 -52 -29 q-10 3 -18 18t-8 25v10q0 4 2 10v15q0 142 -8.5 363t-8.5 378zM131 1165q0 -166 9.5 -416.5t9.5 -302.5v-14q0 -48 5 -88.5t5 -48.5v-14h6q79 0 140 24.5t96.5 62t58.5 88.5t31 97.5t8 95.5q0 58 -4 114t-13 124.5t-28 129t-46 116t-69.5 97t-95.5 62.5h2l-113 29 q-2 -53 -2 -156z" />
<glyph unicode="&#xdf;" horiz-adv-x="946" d="M61 723v162q0 11 5.5 51t5.5 53q0 17 -3 44.5t-3 31.5v231q0 131 83.5 208t227.5 77q95 0 166 -62t71 -149q0 -77 -34 -147l-48 -93q-2 -10 -4 -18l76 -59q67 -53 137 -174l90 -160q27 -55 40.5 -148.5t13.5 -179.5q0 -56 -20 -117.5t-55.5 -115.5t-93 -89.5 t-124.5 -35.5h-10q-32 0 -64 14l-33 12q-66 25 -109.5 112.5t-43.5 166.5q0 11 7 25t7 20h64q0 -35 8 -77t26.5 -88t55.5 -76.5t86 -30.5q73 0 126 46.5t75 109t22 128.5q0 167 -92 356.5t-185 252.5l-45 30q-47 24 -47 68q10 30 37 78.5t44.5 91.5t17.5 84q0 58 -52 99.5 t-125 47.5q-30 -6 -47.5 -10.5t-47 -13t-47.5 -19t-37.5 -25t-28.5 -34.5t-9 -45q0 -12 -3 -174t-3 -246l-2 -594q0 -49 7.5 -141t7.5 -135v-58l-33 -4q-17 0 -27.5 16t-14.5 44.5t-5.5 56t-2.5 63t-3 52.5v344q0 1 -1 32t-2.5 66t-1.5 45z" />
<glyph unicode="&#xe0;" horiz-adv-x="634" d="M61 236v157q3 99 70.5 175.5t130.5 76.5q66 0 114 -6.5t84.5 -16.5t37.5 -10q0 3 1 9.5t1 9.5v20q0 7 1 19t1 18q0 141 -101 141h-233q-7 0 -20.5 12.5t-14.5 22.5q0 23 10 35.5t18.5 14t22.5 1.5h228q4 0 29.5 -7t35.5 -11q44 -27 70 -93t26 -145q0 -43 -6 -81 q4 -12 4 -35q0 -27 -10 -39v-113q0 -41 2 -135.5t2 -151.5v-57q0 -17 -12 -33t-23 -16q-16 0 -26 31t-12 63q-55 -19 -119.5 -34t-93.5 -15q-76 0 -139 45t-79 148zM129 336q0 -108 35.5 -148.5t95.5 -40.5h37q17 0 79 24t101 24q11 0 14 3.5t3 18.5q0 29 -7 43v260l-135 47 h-76q-61 0 -104 -68.5t-43 -162.5zM188 1354q0 19 6 24.5t27 5.5q7 0 15 -4.5t17.5 -15t17.5 -20t20.5 -28t20 -30t22.5 -35t22 -34.5l80 -123h-2q10 -20 10 -27q0 -16 -12.5 -27.5t-25.5 -11.5q-6 0 -12.5 4t-15 14t-15 18.5t-17 24.5t-15.5 24t-16 27t-14 23l-37 62h2 l-33 35q0 12 -22.5 44t-22.5 50z" />
<glyph unicode="&#xe1;" horiz-adv-x="634" d="M61 236v157q3 99 70.5 175.5t130.5 76.5q66 0 114 -6.5t84.5 -16.5t37.5 -10q0 3 1 9.5t1 9.5v20q0 7 1 19t1 18q0 141 -101 141h-233q-7 0 -20.5 12.5t-14.5 22.5q0 23 10 35.5t18.5 14t22.5 1.5h228q4 0 29.5 -7t35.5 -11q44 -27 70 -93t26 -145q0 -43 -6 -81 q4 -12 4 -35q0 -27 -10 -39v-113q0 -41 2 -135.5t2 -151.5v-57q0 -17 -12 -33t-23 -16q-16 0 -26 31t-12 63q-55 -19 -119.5 -34t-93.5 -15q-76 0 -139 45t-79 148zM129 336q0 -108 35.5 -148.5t95.5 -40.5h37q17 0 79 24t101 24q11 0 14 3.5t3 18.5q0 29 -7 43v260l-135 47 h-76q-61 0 -104 -68.5t-43 -162.5zM188 1067q0 22 43 76h-2l47 74q93 167 134 167q23 0 28.5 -5.5t5.5 -24.5q0 -12 -22.5 -46t-22.5 -48l-32 -35h2l-37 -62q-67 -109 -90 -128q-9 -7 -15 -7q-13 0 -26 11.5t-13 27.5z" />
<glyph unicode="&#xe2;" horiz-adv-x="634" d="M61 236v157q3 99 70.5 175.5t130.5 76.5q66 0 114 -6.5t84.5 -16.5t37.5 -10q0 3 1 9.5t1 9.5v20q0 7 1 19t1 18q0 141 -101 141h-233q-7 0 -20.5 12.5t-14.5 22.5q0 23 10 35.5t18.5 14t22.5 1.5h228q4 0 29.5 -7t35.5 -11q44 -27 70 -93t26 -145q0 -43 -6 -81 q4 -12 4 -35q0 -27 -10 -39v-113q0 -41 2 -135.5t2 -151.5v-57q0 -17 -12 -33t-23 -16q-16 0 -26 31t-12 63q-55 -19 -119.5 -34t-93.5 -15q-76 0 -139 45t-79 148zM84 1049q0 31 33 90l45 75q13 22 46.5 88.5t58 107t38.5 44.5q36 0 90 -131q0 -25 11.5 -51t24 -43t36 -44 t31.5 -38l26 -37q3 -4 12.5 -18t14.5 -19q0 -37 -35 -37q-17 0 -34 11t-17 22q0 8 -34.5 52.5t-35.5 47.5q-71 134 -71 160l-13 14l-20 -34l2 2l-25 -56l-65 -100l-56 -106q-4 -29 -36 -29q-27 0 -27 29zM129 336q0 -108 35.5 -148.5t95.5 -40.5h37q17 0 79 24t101 24 q11 0 14 3.5t3 18.5q0 29 -7 43v260l-135 47h-76q-61 0 -104 -68.5t-43 -162.5z" />
<glyph unicode="&#xe3;" horiz-adv-x="634" d="M61 236v157q3 99 70.5 175.5t130.5 76.5q66 0 114 -6.5t84.5 -16.5t37.5 -10q0 3 1 9.5t1 9.5v20q0 7 1 19t1 18q0 141 -101 141h-233q-7 0 -20.5 12.5t-14.5 22.5q0 23 10 35.5t18.5 14t22.5 1.5h228q4 0 29.5 -7t35.5 -11q44 -27 70 -93t26 -145q0 -43 -6 -81 q4 -12 4 -35q0 -27 -10 -39v-113q0 -41 2 -135.5t2 -151.5v-57q0 -17 -12 -33t-23 -16q-16 0 -26 31t-12 63q-55 -19 -119.5 -34t-93.5 -15q-76 0 -139 45t-79 148zM70 1116v10q1 5 2.5 19.5t3 23t6 19.5t10.5 18l39 43q25 29 80 29h20l35 -16q35 -22 51 -70l11 -33 q2 -6 5 -20.5t5 -19.5t7.5 -14.5t12.5 -13t19.5 -7t30.5 -3.5q34 0 50 12t27 40l7 24q0 4 6 19.5t6 25.5q0 2 -4 16t-4 25q0 13 9 22t23 9q20 0 28.5 -22.5t8.5 -49.5v-33q-19 -82 -53 -117.5t-98 -35.5q-47 0 -78 20t-44.5 49t-23.5 58t-25.5 49t-39.5 20q-37 0 -54.5 -34 t-17.5 -72v-23q17 -6 29 -32l-15 -9q-8 -16 -22 -22h-10q-24 0 -33.5 34t-9.5 62zM129 336q0 -108 35.5 -148.5t95.5 -40.5h37q17 0 79 24t101 24q11 0 14 3.5t3 18.5q0 29 -7 43v260l-135 47h-76q-61 0 -104 -68.5t-43 -162.5z" />
<glyph unicode="&#xe4;" horiz-adv-x="634" d="M61 236v157q3 99 70.5 175.5t130.5 76.5q66 0 114 -6.5t84.5 -16.5t37.5 -10q0 3 1 9.5t1 9.5v20q0 7 1 19t1 18q0 141 -101 141h-233q-7 0 -20.5 12.5t-14.5 22.5q0 23 10 35.5t18.5 14t22.5 1.5h228q4 0 29.5 -7t35.5 -11q44 -27 70 -93t26 -145q0 -43 -6 -81 q4 -12 4 -35q0 -27 -10 -39v-113q0 -41 2 -135.5t2 -151.5v-57q0 -17 -12 -33t-23 -16q-16 0 -26 31t-12 63q-55 -19 -119.5 -34t-93.5 -15q-76 0 -139 45t-79 148zM119 1139q0 72 74 94q28 0 48.5 -24.5t20.5 -47.5q0 -44 -72 -94q-31 0 -51 21.5t-20 50.5zM129 336 q0 -108 35.5 -148.5t95.5 -40.5h37q17 0 79 24t101 24q11 0 14 3.5t3 18.5q0 29 -7 43v260l-135 47h-76q-61 0 -104 -68.5t-43 -162.5zM375 1139q0 72 71 94q28 0 49 -24.5t21 -47.5q0 -44 -72 -94q-30 0 -49.5 21.5t-19.5 50.5z" />
<glyph unicode="&#xe5;" horiz-adv-x="634" d="M61 236v157q3 99 70.5 175.5t130.5 76.5q66 0 114 -6.5t84.5 -16.5t37.5 -10q0 3 1 9.5t1 9.5v20q0 7 1 19t1 18q0 141 -101 141h-233q-7 0 -20.5 12.5t-14.5 22.5q0 23 10 35.5t18.5 14t22.5 1.5h228q4 0 29.5 -7t35.5 -11q44 -27 70 -93t26 -145q0 -43 -6 -81 q4 -12 4 -35q0 -27 -10 -39v-113q0 -41 2 -135.5t2 -151.5v-57q0 -17 -12 -33t-23 -16q-16 0 -26 31t-12 63q-55 -19 -119.5 -34t-93.5 -15q-76 0 -139 45t-79 148zM113 1231q0 105 93 182.5t200 77.5q86 0 141 -57t55 -148q0 -104 -55 -192t-156 -107h-20q-92 0 -169 63.5 t-87 151.5q-2 8 -2 29zM129 336q0 -108 35.5 -148.5t95.5 -40.5h37q17 0 79 24t101 24q11 0 14 3.5t3 18.5q0 29 -7 43v260l-135 47h-76q-61 0 -104 -68.5t-43 -162.5zM197 1249q0 -11 4 -35q7 -60 55 -100.5t111 -40.5h16q55 7 98.5 58t46.5 110l-12 94q-7 7 -20.5 25 t-23.5 29.5t-29.5 21.5t-43.5 10q-71 0 -136.5 -62t-65.5 -110z" />
<glyph unicode="&#xe6;" horiz-adv-x="997" d="M61 709q0 58 87 124t153 66q43 0 57 -4l9 -6q33 -12 55 -37l6 -4q40 -40 49 -62l10 -36q29 72 75.5 125t101.5 53q47 0 83.5 -33.5t53 -80t16.5 -93.5q0 -44 -20.5 -110t-46.5 -99h2l-88 -137q-8 -16 -60.5 -73t-60.5 -89q4 -4 4 -6v2l6 -12q24 -43 47 -70l6 -8 q60 -43 123 -43q53 0 127 33q8 6 25 14t24 8q11 0 21 -8t10 -21q0 -34 -45.5 -60t-92 -36t-75.5 -10q-60 0 -118 31.5t-93 83.5l-12 16l-8 -16q2 -4 2 -17q-4 0 -12 -4t-11 -4q-28 0 -39 33l-72 -62q-20 -17 -32 -26t-37.5 -19t-54.5 -12q-36 0 -63 19.5t-40.5 51t-20 64.5 t-6.5 68v12q0 38 7 59l14 45q0 6 5 20.5t9 18.5h-2q41 73 103.5 114.5t138.5 41.5q29 0 45 -12q10 31 10 71q0 250 -137 250q-58 0 -123 -65l-39 -47q-26 -35 -45 -35q-7 0 -19 11t-12 22zM176 199q3 -26 6 -42.5t9.5 -36.5t19 -30t29.5 -10q27 0 45.5 13t38 34t38.5 31 l-2 -2l37 26l31 35q8 0 8 19v110q0 4 1 14t1 15q0 65 -63 65q-83 -12 -141 -82t-58 -159zM510 565q4 -36 4 -69v-191q37 37 100 123v-2l21 37q7 13 33.5 57.5t39.5 69.5t26.5 63.5t13.5 69.5q0 51 -28 92t-63 41q-28 0 -56.5 -41t-43.5 -82l-31 -84q0 -15 -8 -41.5t-8 -34.5 v-8z" />
<glyph unicode="&#xe7;" horiz-adv-x="583" d="M61 401v15q7 102 7 112l16 103q10 63 33 125t64 110.5t89 48.5h121q19 0 46.5 -16.5t27.5 -42.5q0 -15 -1 -21.5t-9.5 -13t-24.5 -6.5q-18 0 -46 8t-58 8q-183 0 -183 -397q0 -48 1.5 -77t7 -70t19.5 -71t36 -50q24 -23 80.5 -41.5t77.5 -18.5q15 1 36.5 1.5t33.5 1.5 t26.5 3.5t25.5 8.5q35 0 35 -37q0 -44 -21 -58t-57 -14h-49q-74 0 -151 27q1 -6 1.5 -14.5t1 -14t1.5 -8.5q-8 -29 -8 -70v-28q10 0 31 1t28 1q59 -18 90 -45l49 -45l31 -39q-2 -2 -3 -3.5t-1.5 -2t-1.5 -0.5q16 -17 24.5 -40.5t9.5 -39t1 -43.5q0 -116 -59 -184t-163 -68 h-22q-18 0 -57 27t-39 47t10.5 26t30.5 6h14q38 -34 66 -34q68 0 110.5 48.5t42.5 121.5q0 61 -41.5 125.5t-97.5 64.5h-96q-18 12 -22.5 23t-4.5 32v39q0 101 16 141q-18 11 -33.5 25t-27 33t-20 33.5t-15 40t-10.5 38.5t-7.5 44t-4.5 40.5t-4 44t-3 39.5z" />
<glyph unicode="&#xe8;" horiz-adv-x="655" d="M61 195q0 7 2.5 122.5t2.5 149.5v29l6 82q10 141 34 208t101 123l14 6h119q18 -6 31 -6l102 -51q49 -25 85 -107.5t36 -152.5q0 -14 -2.5 -28.5t-8.5 -33.5t-20 -32t-35 -17h-39q-41 0 -113 -4t-108 -4h-51q-27 9 -27 39q0 17 86 32t130 15h65q42 0 47 29l-35 117 q-18 60 -74 96.5t-118 36.5q-49 0 -81.5 -35t-47 -99.5t-19 -122.5t-4.5 -136v-80q0 -93 6 -191q5 -94 189 -94q121 0 151 45l11 35q5 18 8 27.5t9.5 22.5t15 18.5t20.5 5.5t22.5 -10t10.5 -29v-8q0 -18 -4.5 -39t-18.5 -48.5t-36 -48.5t-61.5 -36t-90.5 -15q-34 0 -54 0.5 t-56 4t-59 10.5t-52 21t-46 33.5t-29.5 50t-13.5 69.5zM199 1354q0 19 5.5 24.5t26.5 5.5q5 0 11 -3t13.5 -9t13.5 -12.5t15 -18t15.5 -20.5t16.5 -24.5t16 -25t17.5 -27t17.5 -27.5l79 -123h-2q11 -22 11 -27q0 -16 -13 -27.5t-26 -11.5q-6 0 -12.5 4t-15 14t-15 18.5 t-17 24.5t-15.5 24t-16 27t-14 23l-37 62h2l-32 35q0 12 -22.5 44t-22.5 50z" />
<glyph unicode="&#xe9;" horiz-adv-x="655" d="M61 195q0 7 2.5 122.5t2.5 149.5v29l6 82q10 141 34 208t101 123l14 6h119q18 -6 31 -6l102 -51q49 -25 85 -107.5t36 -152.5q0 -14 -2.5 -28.5t-8.5 -33.5t-20 -32t-35 -17h-39q-41 0 -113 -4t-108 -4h-51q-27 9 -27 39q0 17 86 32t130 15h65q42 0 47 29l-35 117 q-18 60 -74 96.5t-118 36.5q-49 0 -81.5 -35t-47 -99.5t-19 -122.5t-4.5 -136v-80q0 -93 6 -191q5 -94 189 -94q121 0 151 45l11 35q5 18 8 27.5t9.5 22.5t15 18.5t20.5 5.5t22.5 -10t10.5 -29v-8q0 -18 -4.5 -39t-18.5 -48.5t-36 -48.5t-61.5 -36t-90.5 -15q-34 0 -54 0.5 t-56 4t-59 10.5t-52 21t-46 33.5t-29.5 50t-13.5 69.5zM199 1067q0 22 43 76h-2l47 74q93 167 133 167q23 0 29 -5.5t6 -24.5q0 -12 -22.5 -46t-22.5 -48l-33 -35h2l-37 -62q-3 -4 -11 -17.5t-12 -20.5t-12 -19.5t-13 -20t-12.5 -18t-12.5 -16.5t-11 -12t-11 -8.5t-9 -2.5 q-13 0 -26 11.5t-13 27.5z" />
<glyph unicode="&#xea;" horiz-adv-x="655" d="M61 195q0 7 2.5 122.5t2.5 149.5v29l6 82q10 141 34 208t101 123l14 6h119q18 -6 31 -6l102 -51q49 -25 85 -107.5t36 -152.5q0 -14 -2.5 -28.5t-8.5 -33.5t-20 -32t-35 -17h-39q-41 0 -113 -4t-108 -4h-51q-27 9 -27 39q0 17 86 32t130 15h65q42 0 47 29l-35 117 q-18 60 -74 96.5t-118 36.5q-49 0 -81.5 -35t-47 -99.5t-19 -122.5t-4.5 -136v-80q0 -93 6 -191q5 -94 189 -94q121 0 151 45l11 35q5 18 8 27.5t9.5 22.5t15 18.5t20.5 5.5t22.5 -10t10.5 -29v-8q0 -18 -4.5 -39t-18.5 -48.5t-36 -48.5t-61.5 -36t-90.5 -15q-34 0 -54 0.5 t-56 4t-59 10.5t-52 21t-46 33.5t-29.5 50t-13.5 69.5zM94 1049q0 31 33 90l45 75q13 22 46.5 88.5t58 107t38.5 44.5q37 0 91 -131q0 -25 11.5 -51.5t23.5 -42.5t35.5 -44t31.5 -38l27 -37q3 -4 12.5 -18.5t13.5 -18.5q0 -37 -35 -37q-17 0 -34 11t-17 22q0 8 -34 52.5 t-35 47.5q-72 136 -72 160l-12 14l-21 -34l2 2l-24 -56l-66 -100l-55 -106q-4 -29 -37 -29q-27 0 -27 29z" />
<glyph unicode="&#xeb;" horiz-adv-x="655" d="M61 195q0 7 2.5 122.5t2.5 149.5v29l6 82q10 141 34 208t101 123l14 6h119q18 -6 31 -6l102 -51q49 -25 85 -107.5t36 -152.5q0 -14 -2.5 -28.5t-8.5 -33.5t-20 -32t-35 -17h-39q-41 0 -113 -4t-108 -4h-51q-27 9 -27 39q0 17 86 32t130 15h65q42 0 47 29l-35 117 q-18 60 -74 96.5t-118 36.5q-49 0 -81.5 -35t-47 -99.5t-19 -122.5t-4.5 -136v-80q0 -93 6 -191q5 -94 189 -94q121 0 151 45l11 35q5 18 8 27.5t9.5 22.5t15 18.5t20.5 5.5t22.5 -10t10.5 -29v-8q0 -18 -4.5 -39t-18.5 -48.5t-36 -48.5t-61.5 -36t-90.5 -15q-34 0 -54 0.5 t-56 4t-59 10.5t-52 21t-46 33.5t-29.5 50t-13.5 69.5zM129 1139q0 72 74 94q28 0 48.5 -24.5t20.5 -47.5q0 -45 -71 -94q-31 0 -51.5 21.5t-20.5 50.5zM385 1139q0 72 72 94q28 0 48.5 -24.5t20.5 -47.5q0 -45 -71 -94q-30 0 -50 21.5t-20 50.5z" />
<glyph unicode="&#xec;" horiz-adv-x="212" d="M-20 1354q0 19 5.5 24.5t26.5 5.5q7 0 15 -4.5t17.5 -15t17.5 -20t20.5 -28t20 -30t22.5 -35t22 -34.5l80 -123h-2q11 -22 11 -27q0 -16 -13 -27.5t-26 -11.5q-6 0 -12.5 4t-15 14t-15 18.5t-17 24.5t-15.5 24t-16 27t-14 23l-37 62h2l-32 35q0 12 -22.5 44t-22.5 50z M61 0q5 50 5 63q0 3 -1.5 8t-1.5 7l-2 155l13 156q0 10 2 24t2 19q-4 14 -4 57l-4 166q0 13 -2 38.5t-2 41.5v10q0 7 1 26.5t1 27.5v100l32 19q27 -10 35 -26.5t8 -45.5v-29q0 -5 -1 -16t-1 -17q0 -9 2 -26.5t2 -20.5l7 -237q0 -82 -5.5 -247t-5.5 -212v-41h-80z" />
<glyph unicode="&#xed;" horiz-adv-x="212" d="M-20 1067q0 22 43 76h-3l48 74q93 167 133 167q23 0 29 -5.5t6 -24.5q0 -12 -23 -46t-23 -48l-32 -35h2l-37 -62q-67 -109 -90 -128q-9 -7 -15 -7q-13 0 -25.5 11.5t-12.5 27.5zM61 0q5 50 5 63q0 3 -1.5 8t-1.5 7l-2 155l13 156q0 10 2 24t2 19q-4 14 -4 57l-4 166 q0 13 -2 38.5t-2 41.5v10q0 7 1 26.5t1 27.5v100l32 19q27 -10 35 -26.5t8 -45.5v-29q0 -5 -1 -16t-1 -17q0 -9 2 -26.5t2 -20.5l7 -237q0 -82 -5.5 -247t-5.5 -212v-41h-80z" />
<glyph unicode="&#xee;" horiz-adv-x="212" d="M-127 1049q0 31 33 90l45 75q13 22 46.5 88.5t58 107t38.5 44.5q36 0 90 -131q0 -25 11.5 -51t24 -43t36 -44t31.5 -38l26 -37q3 -4 12.5 -18t14.5 -19q0 -37 -35 -37q-17 0 -34 11t-17 22q0 8 -34.5 52.5t-35.5 47.5q-71 134 -71 160l-13 14l-20 -34l2 2l-25 -56 l-65 -100l-55 -106q-4 -29 -37 -29q-27 0 -27 29zM61 0q5 50 5 63q0 3 -1.5 8t-1.5 7l-2 155l13 156q0 10 2 24t2 19q-4 14 -4 57l-4 166q0 13 -2 38.5t-2 41.5v10q0 7 1 26.5t1 27.5v100l32 19q27 -10 35 -26.5t8 -45.5v-29q0 -5 -1 -16t-1 -17q0 -9 2 -26.5t2 -20.5 l7 -237q0 -82 -5.5 -247t-5.5 -212v-41h-80z" />
<glyph unicode="&#xef;" horiz-adv-x="212" d="M-92 1139q0 72 74 94q28 0 48.5 -24.5t20.5 -47.5q0 -45 -71 -94q-31 0 -51.5 21.5t-20.5 50.5zM61 0q5 50 5 63q0 3 -1.5 8t-1.5 7l-2 155l13 156q0 10 2 24t2 19q-4 14 -4 57l-4 166q0 13 -2 38.5t-2 41.5v10q0 7 1 26.5t1 27.5v100l32 19q27 -10 35 -26.5t8 -45.5v-29 q0 -5 -1 -16t-1 -17q0 -9 2 -26.5t2 -20.5l7 -237q0 -82 -5.5 -247t-5.5 -212v-41h-80zM164 1139q0 72 72 94q28 0 48.5 -24.5t20.5 -47.5q0 -44 -72 -94q-30 0 -49.5 21.5t-19.5 50.5z" />
<glyph unicode="&#xf0;" horiz-adv-x="796" d="M61 1559l19 30l26 8q32 7 58 7q30 0 47 -5l70 -14l16 -8q110 -47 213 -176q43 43 57 59l8 2q9 9 13 11q13 0 23 -12.5t10 -24.5q0 -36 -37 -58v2l-39 -41q73 -171 84 -217l14 -57l18 -72t18 -72.5t14.5 -63.5t14.5 -72.5t10 -69.5t9.5 -83.5t5 -86.5t2.5 -105 q0 -176 -18 -241l-12 -43q-13 -35 -13 -45l-35 -60l-20 -20l-14 -19l-25 -8l-109 -12h-51l-114 22q-74 27 -107 75.5t-39 127.5q0 2 -1 6t-1 6v11q0 118 73 198t191 80q134 0 234 -76l-10 133q0 16 -5 79.5t-22 167.5t-41 157l-18 82q-9 40 -16 61t-13.5 31.5t-23 45 t-36.5 87.5l-98 -110q-10 -5 -14 -5q-17 0 -37 13v37q0 4 15.5 18t37 34t31.5 34l27 34q-21 10 -46 54.5t-36 56.5l-19 18q-107 66 -178 66q-19 0 -31 -4l-41 -14zM248 231q8 -86 65 -128t176 -42l62 9l16 8q33 6 55.5 57.5t30.5 106t9 108.5q-68 59 -113 68l-109 24 q-101 -6 -131 -45l-45 -57l2 2q-18 -52 -18 -98v-13z" />
<glyph unicode="&#xf1;" horiz-adv-x="587" d="M47 1116v10q0 3 2.5 19.5t4 23.5t6 18.5t10.5 18.5l39 43q25 29 79 29h21l35 -16q35 -22 51 -70l10 -33q2 -6 5 -20.5t5 -19.5t7.5 -14.5t12.5 -13t19.5 -7t30.5 -3.5q34 0 50.5 12t27.5 40l6 24q0 4 6 19.5t6 25.5q0 2 -4 16t-4 25q0 13 9.5 22t23.5 9q20 0 28.5 -22.5 t8.5 -49.5v-33q-19 -82 -53 -117.5t-99 -35.5q-47 0 -78 20t-44.5 49t-23.5 58t-25.5 49t-39.5 20q-37 0 -54 -34t-17 -72v-23q16 -5 28 -32l-14 -9q-8 -16 -23 -22h-10q-24 0 -33.5 34t-9.5 62zM53 901q0 24 6.5 35.5t26.5 15.5q55 -9 55 -338q0 -26 -0.5 -48.5t-1 -35 t-0.5 -14.5l2 -2l3 23q2 23 8 59.5t16 81t28 89t41.5 81t58.5 59.5t77 23q65 0 107.5 -53.5t45.5 -112.5v-160q0 -54 -6 -164t-6 -164q0 -18 2 -48.5t2 -45.5t-3 -40t-3 -38l6 -26q0 -2 1 -7.5t1 -7.5v-12q-14 -40 -45 -45l-18 2q-22 20 -27 62v30q0 27 5 78.5t5 77.5 l-6 299q6 48 6 154q0 40 -4.5 65.5t-22 45.5t-48.5 20q-52 0 -91 -85.5t-59.5 -207.5t-35.5 -244t-29.5 -207.5t-32.5 -85.5q-4 0 -8 4l-25 4l-14 25l-7 264q9 53 9 135q0 91 -9.5 263t-9.5 196z" />
<glyph unicode="&#xf2;" d="M61 428q0 15 2.5 49t2.5 53q0 25 0.5 47t4.5 65t11 77t22 75t35 68t51.5 45.5t71.5 18.5q22 0 33 -11q1 0 3 2.5t3 2.5h41q5 0 39 -18t43 -28l43 -49q32 -37 39 -182v-68q0 -83 -9.5 -174.5t-30.5 -185.5t-61 -154.5t-94 -60.5h-78q-6 0 -19.5 6.5t-40 29.5t-52.5 58 q-51 98 -58 258q-2 25 -2 76zM133 500q0 -212 33 -315t119 -103q40 0 71 49.5t47.5 126.5t24.5 155t8 150q0 273 -108 273q-10 0 -34 -6.5t-46 -6.5q-17 0 -23 2q-92 -78 -92 -325zM156 1354q0 19 5.5 24.5t26.5 5.5q5 0 11 -3t13.5 -9t13.5 -12.5t15 -18t15.5 -20.5 t16.5 -24.5t16 -25t17.5 -27t17.5 -27.5l79 -123h-2q11 -22 11 -27q0 -16 -13 -27.5t-26 -11.5q-6 0 -12.5 4t-15 14t-15 18.5t-17 24.5t-15.5 24t-16 27t-14 23l-37 62h2l-32 35q0 12 -22.5 44t-22.5 50z" />
<glyph unicode="&#xf3;" d="M61 428q0 15 2.5 49t2.5 53q0 25 0.5 47t4.5 65t11 77t22 75t35 68t51.5 45.5t71.5 18.5q22 0 33 -11q1 0 3 2.5t3 2.5h41q5 0 39 -18t43 -28l43 -49q32 -37 39 -182v-68q0 -83 -9.5 -174.5t-30.5 -185.5t-61 -154.5t-94 -60.5h-78q-6 0 -19.5 6.5t-40 29.5t-52.5 58 q-51 98 -58 258q-2 25 -2 76zM133 500q0 -212 33 -315t119 -103q40 0 71 49.5t47.5 126.5t24.5 155t8 150q0 273 -108 273q-10 0 -34 -6.5t-46 -6.5q-17 0 -23 2q-92 -78 -92 -325zM156 1067q0 22 43 76h-2l47 74q93 167 133 167q23 0 29 -5.5t6 -24.5q0 -12 -22.5 -46 t-22.5 -48l-33 -35h2l-37 -62q-3 -4 -11 -17.5t-12 -20.5t-12 -19.5t-13 -20t-12.5 -18t-12.5 -16.5t-11 -12t-11 -8.5t-9 -2.5q-13 0 -26 11.5t-13 27.5z" />
<glyph unicode="&#xf4;" d="M51 1049q0 31 33 90l45 75q13 22 46.5 88.5t58 107t38.5 44.5q36 0 90 -131q0 -25 11.5 -51t24 -43t36 -44t31.5 -38l27 -37q3 -4 12.5 -18.5t13.5 -18.5q0 -37 -35 -37q-17 0 -34 11t-17 22q0 8 -34.5 52.5t-35.5 47.5q-71 134 -71 160l-12 14l-21 -34l2 2l-24 -56 l-66 -100l-55 -106q-4 -29 -37 -29q-27 0 -27 29zM61 428q0 15 2.5 49t2.5 53q0 25 0.5 47t4.5 65t11 77t22 75t35 68t51.5 45.5t71.5 18.5q22 0 33 -11q1 0 3 2.5t3 2.5h41q5 0 39 -18t43 -28l43 -49q32 -37 39 -182v-68q0 -83 -9.5 -174.5t-30.5 -185.5t-61 -154.5 t-94 -60.5h-78q-6 0 -19.5 6.5t-40 29.5t-52.5 58q-51 98 -58 258q-2 25 -2 76zM133 500q0 -212 33 -315t119 -103q40 0 71 49.5t47.5 126.5t24.5 155t8 150q0 273 -108 273q-10 0 -34 -6.5t-46 -6.5q-17 0 -23 2q-92 -78 -92 -325z" />
<glyph unicode="&#xf5;" d="M37 1116v10q1 5 2.5 19.5t3 23t6 19.5t10.5 18l39 43q25 29 80 29h21l34 -16q37 -22 52 -70l10 -33q2 -6 5 -20.5t5 -19.5t7.5 -14.5t12.5 -13t19.5 -7t30.5 -3.5q34 0 50.5 12t27.5 40l6 24q0 4 6 19.5t6 25.5q0 2 -4 16t-4 25q0 13 9.5 22t23.5 9q36 0 36 -72v-33 q-19 -82 -53 -117.5t-98 -35.5q-47 0 -78 20t-44.5 49t-23.5 58t-25.5 49t-39.5 20q-37 0 -54.5 -34t-17.5 -72v-23q17 -6 29 -32l-14 -9q-8 -16 -23 -22h-10q-24 0 -33.5 34t-9.5 62zM61 428q0 15 2.5 49t2.5 53q0 25 0.5 47t4.5 65t11 77t22 75t35 68t51.5 45.5t71.5 18.5 q22 0 33 -11q1 0 3 2.5t3 2.5h41q5 0 39 -18t43 -28l43 -49q32 -37 39 -182v-68q0 -83 -9.5 -174.5t-30.5 -185.5t-61 -154.5t-94 -60.5h-78q-6 0 -19.5 6.5t-40 29.5t-52.5 58q-51 98 -58 258q-2 25 -2 76zM133 500q0 -212 33 -315t119 -103q40 0 71 49.5t47.5 126.5 t24.5 155t8 150q0 273 -108 273q-10 0 -34 -6.5t-46 -6.5q-17 0 -23 2q-92 -78 -92 -325z" />
<glyph unicode="&#xf6;" d="M61 428q0 15 2.5 49t2.5 53q0 25 0.5 47t4.5 65t11 77t22 75t35 68t51.5 45.5t71.5 18.5q22 0 33 -11q1 0 3 2.5t3 2.5h41q5 0 39 -18t43 -28l43 -49q32 -37 39 -182v-68q0 -83 -9.5 -174.5t-30.5 -185.5t-61 -154.5t-94 -60.5h-78q-6 0 -19.5 6.5t-40 29.5t-52.5 58 q-51 98 -58 258q-2 25 -2 76zM84 1139q0 72 74 94q28 0 48.5 -24.5t20.5 -47.5q0 -45 -71 -94q-31 0 -51.5 21.5t-20.5 50.5zM133 500q0 -212 33 -315t119 -103q40 0 71 49.5t47.5 126.5t24.5 155t8 150q0 273 -108 273q-10 0 -34 -6.5t-46 -6.5q-17 0 -23 2 q-92 -78 -92 -325zM340 1139q0 72 72 94q28 0 48.5 -24.5t20.5 -47.5q0 -45 -71 -94q-30 0 -50 21.5t-20 50.5z" />
<glyph unicode="&#xf8;" horiz-adv-x="696" d="M61 354q0 520 312 520q49 0 110 -22v4q0 41 29.5 112.5t56.5 71.5q13 0 20 -6t8 -11t1 -15q0 -2 -6 -20.5t-6 -20.5l-45 -138q-4 -2 -4 -6q6 -6 12 -16l8 -12q78 -87 78 -301q0 -53 -9.5 -114t-34 -129t-60 -122t-93 -89.5t-127.5 -35.5q-19 0 -47 10.5t-35 12.5 l-45 -142q-7 -26 -41 -26t-34 35v8q0 25 16.5 79t40.5 87q-105 117 -105 286zM131 410q0 -153 62 -252h-3l7 -6l71 184q21 49 67 164.5t71 173.5l43 117q-8 0 -28.5 8t-33.5 8q-66 0 -115 -29.5t-75 -71t-42 -100t-20 -103t-4 -93.5zM254 96q37 -16 65 -16q50 0 83 19t61 59 h-2q104 172 104 336q0 60 -22 172l-6 28l-31 51l-76 -180h2q-14 -23 -14 -37l-53 -149l-27 -57q-34 -75 -45 -117q-7 -5 -22.5 -45t-16.5 -64z" />
<glyph unicode="&#xf9;" horiz-adv-x="645" d="M59 573q0 345 43 345q12 0 25.5 -15t13.5 -29v-67q0 -310 -6 -457v-14q3 -47 6 -76t15.5 -67.5t33.5 -59.5l39 -39q6 -6 19 -12t18 -6h27q188 0 188 387v115q0 237 39 333q15 0 35 -9t25 -17v-97q0 -5 -5.5 -74t-5.5 -85v-62q-18 -180 -18 -207q0 -178 24 -319 q9 -11 9 -29q0 -15 -10.5 -29t-26.5 -14q-18 0 -30.5 11t-19 36t-9 45.5t-5.5 57.5v8l-28 -53q-23 -41 -69 -62.5t-91 -21.5q-97 0 -161.5 82.5t-72.5 187.5v164q0 14 -1 65t-1 84zM195 1354q0 19 5.5 24.5t26.5 5.5q7 0 15 -4.5t17.5 -15t17.5 -20t20.5 -28t20 -30 t22.5 -35t22 -34.5l80 -123h-2q11 -22 11 -27q0 -16 -13 -27.5t-26 -11.5q-6 0 -12.5 4t-15 14t-15 18.5t-17 24.5t-15.5 24t-16 27t-14 23l-37 62h2l-32 35q0 12 -22.5 44t-22.5 50z" />
<glyph unicode="&#xfa;" horiz-adv-x="645" d="M59 573q0 345 43 345q12 0 25.5 -15t13.5 -29v-67q0 -310 -6 -457v-14q3 -47 6 -76t15.5 -67.5t33.5 -59.5l39 -39q6 -6 19 -12t18 -6h27q188 0 188 387v115q0 237 39 333q15 0 35 -9t25 -17v-97q0 -5 -5.5 -74t-5.5 -85v-62q-18 -180 -18 -207q0 -178 24 -319 q9 -11 9 -29q0 -15 -10.5 -29t-26.5 -14q-18 0 -30.5 11t-19 36t-9 45.5t-5.5 57.5v8l-28 -53q-23 -41 -69 -62.5t-91 -21.5q-97 0 -161.5 82.5t-72.5 187.5v164q0 14 -1 65t-1 84zM195 1067q0 22 43 76h-2l47 74q93 167 133 167q23 0 29 -5.5t6 -24.5q0 -12 -22.5 -46 t-22.5 -48l-33 -35h2l-37 -62q-67 -109 -90 -128q-9 -7 -15 -7q-13 0 -25.5 11.5t-12.5 27.5z" />
<glyph unicode="&#xfb;" horiz-adv-x="645" d="M59 573q0 345 43 345q12 0 25.5 -15t13.5 -29v-67q0 -310 -6 -457v-14q3 -47 6 -76t15.5 -67.5t33.5 -59.5l39 -39q6 -6 19 -12t18 -6h27q188 0 188 387v115q0 237 39 333q15 0 35 -9t25 -17v-97q0 -5 -5.5 -74t-5.5 -85v-62q-18 -180 -18 -207q0 -178 24 -319 q9 -11 9 -29q0 -15 -10.5 -29t-26.5 -14q-18 0 -30.5 11t-19 36t-9 45.5t-5.5 57.5v8l-28 -53q-23 -41 -69 -62.5t-91 -21.5q-97 0 -161.5 82.5t-72.5 187.5v164q0 14 -1 65t-1 84zM88 1049q0 31 33 90l45 75q13 22 46.5 88.5t58 107t38.5 44.5q36 0 90 -131q0 -25 11.5 -51 t24 -43t36 -44t31.5 -38l26 -37q3 -4 12.5 -18t14.5 -19q0 -37 -35 -37q-17 0 -34 11t-17 22q0 8 -34.5 52.5t-35.5 47.5q-71 134 -71 160l-13 14l-20 -34l2 2l-25 -56l-65 -100l-55 -106q-4 -29 -37 -29q-27 0 -27 29z" />
<glyph unicode="&#xfc;" horiz-adv-x="645" d="M59 573q0 345 43 345q12 0 25.5 -15t13.5 -29v-67q0 -310 -6 -457v-14q3 -47 6 -76t15.5 -67.5t33.5 -59.5l39 -39q6 -6 19 -12t18 -6h27q188 0 188 387v115q0 237 39 333q15 0 35 -9t25 -17v-97q0 -5 -5.5 -74t-5.5 -85v-62q-18 -180 -18 -207q0 -178 24 -319 q9 -11 9 -29q0 -15 -10.5 -29t-26.5 -14q-18 0 -30.5 11t-19 36t-9 45.5t-5.5 57.5v8l-28 -53q-23 -41 -69 -62.5t-91 -21.5q-97 0 -161.5 82.5t-72.5 187.5v164q0 14 -1 65t-1 84zM123 1139q0 72 74 94q28 0 48.5 -24.5t20.5 -47.5q0 -45 -71 -94q-31 0 -51.5 21.5 t-20.5 50.5zM379 1139q0 72 72 94q28 0 48.5 -24.5t20.5 -47.5q0 -45 -71 -94q-30 0 -50 21.5t-20 50.5z" />
<glyph unicode="&#xfd;" horiz-adv-x="595" d="M61 770v107q0 44 70 49q4 -136 4 -207v-262q0 -54 2.5 -96.5t11 -95.5t24 -88.5t44.5 -60t68 -24.5l32 2l23 25q32 35 53 79t30.5 104t13 98.5t5 115t2.5 100.5v13l-2 -4v4q0 208 56 297q37 -37 37 -117v-29q-15 -287 -15 -798l-4 -97q-1 -21 -6.5 -70.5t-5.5 -74.5 l-21 -146q-8 -111 -79 -199t-177 -108q-22 0 -38 13t-17 34q3 29 29 39h47l10 9q47 18 76.5 49.5t43.5 73t21 81.5t15.5 91t19.5 85v-2q21 162 21 439q-13 -41 -25.5 -69.5t-33.5 -59t-52.5 -46.5t-71.5 -16q-50 0 -90 27t-62.5 70t-34 90.5t-11.5 95.5v18q-13 244 -13 461z M170 1067q0 22 43 76h-2l47 74q93 167 133 167q23 0 29 -5.5t6 -24.5q0 -12 -22.5 -46t-22.5 -48l-33 -35h2l-37 -62q-3 -4 -11 -17.5t-12 -20.5t-12 -19.5t-13 -20t-12.5 -18t-12.5 -16.5t-11 -12t-11 -8.5t-9 -2.5q-13 0 -26 11.5t-13 27.5z" />
<glyph unicode="&#xfe;" horiz-adv-x="538" d="M61 -193l9 62q8 54 8 76v20q-5 99 -12 447q8 227 8 493v402q0 27 -2 98.5t-2 89.5q0 15 2 42t2 42v25q11 22 39 22q21 0 43 -22q-2 -113 -2 -340q0 -27 4 -65.5t4 -61.5q0 -54 -6 -70v-127q94 -25 158 -62.5t99 -89t49.5 -109t14.5 -132.5q0 -59 -25.5 -121t-81 -109 t-126.5 -47h-94v-73q0 -31 4 -103t4 -114v-17q0 -205 -58 -205q-39 0 -39 49zM139 356q16 -2 56 -2q94 0 147 53.5t53 139.5v37q0 78 -42 143t-122 104l-65 15q-1 0 -2 1t-2 1q-6 0 -10 -4q0 -121 -13 -488z" />
<glyph unicode="&#xff;" horiz-adv-x="595" d="M61 770v107q0 44 70 49q4 -136 4 -207v-262q0 -54 2.5 -96.5t11 -95.5t24 -88.5t44.5 -60t68 -24.5l32 2l23 25q32 35 53 79t30.5 104t13 98.5t5 115t2.5 100.5v13l-2 -4v4q0 208 56 297q37 -37 37 -117v-29q-15 -287 -15 -798l-4 -97q-1 -21 -6.5 -70.5t-5.5 -74.5 l-21 -146q-8 -111 -79 -199t-177 -108q-22 0 -38 13t-17 34q3 29 29 39h47l10 9q47 18 76.5 49.5t43.5 73t21 81.5t15.5 91t19.5 85v-2q21 162 21 439q-13 -41 -25.5 -69.5t-33.5 -59t-52.5 -46.5t-71.5 -16q-50 0 -90 27t-62.5 70t-34 90.5t-11.5 95.5v18q-13 244 -13 461z M98 1139q0 72 74 94q28 0 49 -24.5t21 -47.5q0 -44 -72 -94q-31 0 -51.5 21.5t-20.5 50.5zM354 1139q0 72 72 94q28 0 49 -24.5t21 -47.5q0 -44 -72 -94q-30 0 -50 21.5t-20 50.5z" />
<glyph unicode="&#x152;" horiz-adv-x="907" d="M61 975q0 77 9 139v8q2 41 15 119.5t13 126.5q2 8 27 58t25 55l30 26q55 66 107.5 91t140.5 38q19 0 37 -18q17 14 47 14q4 -1 29 -4.5t30 -3.5q15 0 47.5 2t51.5 2h16q37 0 78 -12t41 -39q0 -21 -7.5 -29t-27.5 -8q-60 0 -100 12h-127q-15 0 -19 2h-2q0 -32 10 -147 v-379q0 -117 -4 -149v-33q0 -2 -1 -5t-1 -5t25 -2h94q13 0 36.5 1t31.5 1h47q20 0 24 -7t4 -26q0 -45 -67 -45q-24 0 -56.5 2t-48.5 2h-28q-48 0 -60 2v-23q0 -49 5.5 -145.5t5.5 -144.5q0 -37 -3.5 -102t-3.5 -97q0 -59 13 -158q44 0 128.5 11.5t127.5 11.5h24 q21 -21 21 -39q0 -10 -9 -22t-18 -15h-20q-43 0 -80 -6l-113 -6q-77 -5 -96 -15l-14 -6l2 2q-12 -9 -27 -14h-37q-85 0 -152 28t-107.5 77t-63 108.5t-27.5 128.5v68q-10 10 -10 129v69q0 13 1 37t1 35q0 69 -2 96zM127 969q15 -220 20 -385v-109q0 -27 11 -186v2 q53 -223 291 -223q17 0 21.5 10.5t4.5 34.5v30q0 30 -4 50v368q0 64 -4 92v564q0 3 2 19t2 28l-10 217q-6 30 -6 75v17l-4 -2q-104 -12 -180 -63t-101 -148l-8 -33v2l-17 -121q-6 -25 -6 -47l-12 -143v-49z" />
<glyph unicode="&#x153;" horiz-adv-x="966" d="M61 420q0 106 25.5 203t75.5 157h-2q43 68 93.5 104t121.5 36h41q0 -2 4.5 -4.5t10 -5.5t7.5 -5h15q13 0 22 -12l14 16q13 13 41.5 14.5t38.5 4.5q60 0 117 -45v2q60 -37 97.5 -106.5t37.5 -147.5q0 -99 -54 -165.5t-151 -66.5q-55 0 -104 25l-29 29q-10 10 -12 14 q0 -1 -1 -3t-1 -3q0 -2 1 -4.5t1 -3.5v-35q0 -102 21 -163.5t83 -119.5q15 -15 33 -18l21 -11h82l12 5h-2q86 33 135 100h49q0 -30 -8 -70l-23 -24q-62 -50 -109 -72t-106 -22q-67 0 -141 55l-47 57q-4 -105 -43 -127v2q-16 -12 -63 -12q-36 0 -82 17t-92 49.5t-80.5 89 t-40.5 125.5q-9 106 -9 141zM137 403q0 -97 33 -191.5t84 -94.5l76 -33q8 0 30 -1t29 -1v-2q12 0 12 104v68q0 53 -5 151t-5 144v49q0 46 4.5 93t9.5 71l5 24l-4 62q-2 0 -5.5 1t-5.5 1h-8q-27 -1 -41 -2.5t-34 -9t-29 -19.5l-58 -69q-47 -58 -67.5 -154.5t-20.5 -190.5z M477 627q0 -61 41.5 -103.5t95.5 -42.5q62 0 101 37t39 111q0 77 -58.5 150t-124.5 73q-28 0 -47.5 -17t-29 -49.5t-13.5 -69t-4 -85.5v-4z" />
<glyph unicode="&#x178;" horiz-adv-x="825" d="M61 1585q0 37 31 37q19 0 46.5 -58.5t27.5 -78.5l37 -94l14 -27q0 -7 13 -28t36.5 -60t40.5 -76l37 -80l21 -43l36 -84q2 -6 8 -28.5t15.5 -38t28.5 -33.5v2q0 6 4 18q51 148 57 170l14 56q26 101 89.5 262t113.5 239q4 -4 13.5 -6.5t14.5 -10.5t5 -30l-176 -489 q-9 -23 -39 -127l-51 -158q-15 -15 -15 -223v-37q0 -7 2 -65.5t2 -75.5q0 -11 -4 -15q0 -20 4.5 -52.5t4.5 -39.5v-198q0 -5 2 -37t2 -35v-21q0 -7 -9.5 -17t-17.5 -13q-10 0 -25.5 18t-15.5 23q0 56 -4 84v39q0 13 2 49.5t2 56.5q0 43 -8 313q0 3 2 32t2 36q0 3 -2 28 t-2 29v107q-12 20 -27 55l-133 287q-15 30 -76 138t-84 167zM213 1847q0 73 74 95q28 0 48.5 -24.5t20.5 -47.5q0 -45 -71 -94q-31 0 -51.5 21t-20.5 50zM469 1847q0 73 72 95q28 0 48.5 -24.5t20.5 -47.5q0 -45 -71 -94q-30 0 -50 21t-20 50z" />
<glyph unicode="&#x2000;" horiz-adv-x="1114" />
<glyph unicode="&#x2001;" horiz-adv-x="2228" />
<glyph unicode="&#x2002;" horiz-adv-x="1114" />
<glyph unicode="&#x2003;" horiz-adv-x="2228" />
<glyph unicode="&#x2004;" horiz-adv-x="742" />
<glyph unicode="&#x2005;" horiz-adv-x="557" />
<glyph unicode="&#x2006;" horiz-adv-x="371" />
<glyph unicode="&#x2007;" horiz-adv-x="371" />
<glyph unicode="&#x2008;" horiz-adv-x="278" />
<glyph unicode="&#x2009;" horiz-adv-x="445" />
<glyph unicode="&#x200a;" horiz-adv-x="123" />
<glyph unicode="&#x2010;" horiz-adv-x="823" d="M61 621q0 36 70 36q42 0 131 -6t137 -6h150q59 0 86.5 -0.5t63 -3.5t49.5 -10.5t14 -20.5q0 -9 -16 -27t-25 -18l-43 4q-2 0 -10 1t-13 1h-39q-15 0 -53.5 1t-56.5 1h-98q-26 0 -113.5 2.5t-124.5 2.5l-78 4q-31 2 -31 39z" />
<glyph unicode="&#x2011;" horiz-adv-x="823" d="M61 621q0 36 70 36q42 0 131 -6t137 -6h150q59 0 86.5 -0.5t63 -3.5t49.5 -10.5t14 -20.5q0 -9 -16 -27t-25 -18l-43 4q-2 0 -10 1t-13 1h-39q-15 0 -53.5 1t-56.5 1h-98q-26 0 -113.5 2.5t-124.5 2.5l-78 4q-31 2 -31 39z" />
<glyph unicode="&#x2012;" horiz-adv-x="823" d="M61 621q0 36 70 36q42 0 131 -6t137 -6h150q59 0 86.5 -0.5t63 -3.5t49.5 -10.5t14 -20.5q0 -9 -16 -27t-25 -18l-43 4q-2 0 -10 1t-13 1h-39q-15 0 -53.5 1t-56.5 1h-98q-26 0 -113.5 2.5t-124.5 2.5l-78 4q-31 2 -31 39z" />
<glyph unicode="&#x2013;" horiz-adv-x="1146" d="M61 621q0 36 102 36q62 0 192 -6t200 -6h219q86 0 126 -0.5t92 -3.5t72.5 -10.5t20.5 -20.5q0 -9 -23.5 -27t-36.5 -18l-63 4q-3 0 -14.5 1t-18.5 1h-57q-22 0 -78.5 1t-82.5 1h-143q-38 0 -166 2.5t-182 2.5l-114 4q-45 2 -45 39z" />
<glyph unicode="&#x2014;" horiz-adv-x="2170" d="M61 621q0 36 205 36q122 0 382 -6t400 -6h439q172 0 252.5 -0.5t184 -3.5t144.5 -10.5t41 -20.5q0 -9 -46.5 -27t-73.5 -18l-125 4q-6 0 -29.5 1t-38.5 1h-114q-43 0 -155.5 1t-165.5 1h-286q-76 0 -331.5 2.5t-364.5 2.5l-227 4q-91 2 -91 39z" />
<glyph unicode="&#x2018;" horiz-adv-x="241" d="M61 1296v103q0 31 3 61t12.5 68.5t31.5 62t54 23.5q18 0 18 -25q0 -14 -6 -35q-35 -39 -35 -165v-166q-17 -19 -39 -19q-39 0 -39 92z" />
<glyph unicode="&#x2019;" horiz-adv-x="241" d="M61 1227q0 13 7 37q34 38 34 166v165q17 19 39 19q39 0 39 -92v-103q0 -30 -3.5 -60.5t-12.5 -68.5t-31 -62t-53 -24q-19 0 -19 23z" />
<glyph unicode="&#x201a;" horiz-adv-x="241" d="M61 -186q0 12 7 36q34 38 34 166v166q17 19 39 19q39 0 39 -92v-103q0 -30 -3.5 -60.5t-12.5 -68.5t-31 -62t-53 -24q-19 0 -19 23z" />
<glyph unicode="&#x201c;" horiz-adv-x="452" d="M61 1296v103q0 31 3 61t12.5 68.5t31.5 62t54 23.5q18 0 18 -25q0 -14 -6 -35q-35 -39 -35 -165v-166q-17 -19 -39 -19q-39 0 -39 92zM291 1296v103q0 136 49 194q6 -1 15 -1.5t14 -1t10 -3.5t7.5 -11t2.5 -22q0 -22 -9 -89.5t-9 -75.5v-166q-17 -19 -39 -19 q-41 0 -41 92z" />
<glyph unicode="&#x201d;" horiz-adv-x="452" d="M63 1264q0 22 9.5 90t9.5 76v165q17 19 39 19q41 0 41 -92v-103q0 -194 -74 -194q-12 0 -18.5 7.5t-6.5 31.5zM272 1227q0 13 7 37q34 38 34 166v165q17 19 39 19q39 0 39 -92v-103q0 -30 -3.5 -60.5t-12.5 -68.5t-31 -62t-53 -24q-19 0 -19 23z" />
<glyph unicode="&#x201e;" horiz-adv-x="452" d="M63 -137q0 22 9.5 90t9.5 76v166q16 18 39 18q41 0 41 -92v-103q0 -194 -74 -194q-12 0 -18.5 7.5t-6.5 31.5zM272 -174q0 12 7 37q34 38 34 166v166q16 18 39 18q39 0 39 -92v-103q0 -30 -3.5 -60.5t-12.5 -68.5t-31 -62t-53 -24q-19 0 -19 23z" />
<glyph unicode="&#x2026;" horiz-adv-x="708" d="M61 68q0 72 72 94q29 0 49.5 -25t20.5 -49q0 -42 -72 -92q-30 0 -50 21.5t-20 50.5zM283 68q0 72 73 94q29 0 48.5 -24.5t19.5 -49.5q0 -43 -70 -92q-31 0 -51 21.5t-20 50.5zM506 68q0 72 72 94q29 0 49 -25t20 -49q0 -42 -72 -92q-30 0 -49.5 21.5t-19.5 50.5z" />
<glyph unicode="&#x202f;" horiz-adv-x="445" />
<glyph unicode="&#x2039;" horiz-adv-x="638" d="M61 614q0 25 21 52.5t63.5 74.5t73.5 95l62 71q16 16 63 78l84 113q4 43 41 43q19 0 29 -13t10 -26q0 -25 -27 -45h2l-47 -72l-92 -113q-10 -12 -34.5 -39.5t-49 -58t-51.5 -69.5l-35 -31q-29 -25 -43 -43q3 -5 7.5 -10.5t13 -13t12.5 -11.5l24 -25q51 -51 116 -133 t132 -159t142 -138q0 -10 -16.5 -34.5t-29.5 -24.5q-8 0 -28 8l-72 68l-70 75q-55 63 -61 82l-104 123l-58 60q-15 23 -36.5 45t-31.5 36.5t-10 34.5z" />
<glyph unicode="&#x203a;" horiz-adv-x="636" d="M61 141q48 40 99 93t73.5 80t77.5 94l82 100q2 18 54.5 66t60.5 59q-8 11 -42.5 39t-35.5 35q-119 155 -223 274l-49 72h2l-6 6q-23 19 -23 43q0 13 10 26t29 13q7 0 11.5 -0.5t8 -2.5t6 -3.5t4.5 -5t2.5 -5t2 -7t2.5 -7.5l88 -123q43 -59 63 -80l62 -71 q34 -53 75.5 -100t60.5 -71.5t19 -50.5q0 -17 -5 -28t-12.5 -18t-24 -26t-33.5 -44l-58 -60l-106 -127l2 2q-6 -18 -62 -80l-69 -75l-72 -68q-20 -8 -29 -8q-15 0 -30 24t-15 35z" />
<glyph unicode="&#x205f;" horiz-adv-x="557" />
<glyph unicode="&#x20ac;" horiz-adv-x="923" d="M61 842q0 51 103 51h45q13 110 56 225.5t102 198.5l51 59q30 31 35 41l49 45q63 46 73 51l23 13q105 80 197 80q17 0 35 -11t18 -32q0 -27 -29 -37q-4 2 -24 2l-62 -17q-30 -9 -41 -14h2l-67 -37q-39 -22 -74 -53l-80 -76q-27 -43 -43 -59l-37 -49l2 2 q-66 -115 -100 -301v-27h96q18 0 49 -1t41 -1h33q4 0 47.5 3t54.5 3l17 -6q7 -3 16.5 -15.5t9.5 -17.5q0 -12 -13.5 -24.5t-22.5 -12.5h-129q-8 0 -20 1t-17 1h-86q-3 0 -15 -1t-18 -1h-51v-41q0 -83 6 -120h22q39 0 120 6t130 6q20 0 27.5 -6.5t7.5 -28.5v-20l-27 -25h-75 q-31 -4 -82 -4h-72q-21 0 -35 -2q27 -103 86 -223l15 -33l-2 2l26 -41q71 -95 153.5 -147.5t190.5 -67.5l29 -4q37 -6 46 -15t9 -36q0 -22 -9 -28.5t-32 -6.5q-75 0 -138.5 23.5t-137.5 66.5h2l-53 33l-37 30l-97 115q-3 3 -12 21q-56 108 -110 264l-15 41q-11 -1 -82 -17 l-24 -4q-17 0 -33 14.5t-16 28.5q0 19 17.5 30t37.5 13l59 6q6 0 15 2t18 2v9q-2 13 -4 39t-4.5 59.5t-3.5 50.5l-56 -6q-24 -6 -43 -6q-20 0 -31.5 10.5t-11.5 26.5z" />
<glyph unicode="&#x25fc;" horiz-adv-x="921" d="M0 0v922h922v-922h-922z" />
</font>
</defs>
</svg>
